<?xml version="1.0" encoding="UTF-8"?>
<!DOCTYPE svg PUBLIC "-//W3C//DTD SVG 1.1//EN" "http://www.w3.org/Graphics/SVG/1.1/DTD/svg11.dtd">
<!-- Creator: CorelDRAW 2021 (64 Bit) -->
<svg xmlns="http://www.w3.org/2000/svg" xml:space="preserve" width="2.7092mm" height="2.7092mm" version="1.1" style="shape-rendering:geometricPrecision; text-rendering:geometricPrecision; image-rendering:optimizeQuality; fill-rule:evenodd; clip-rule:evenodd"
viewBox="0 0 270.92 270.92"
 xmlns:xlink="http://www.w3.org/1999/xlink"
 xmlns:xodm="http://www.corel.com/coreldraw/odm/2003">
 <defs>
  <style type="text/css">
   <![CDATA[
    .str1 {stroke:#B3B3B3;stroke-width:16.93;stroke-miterlimit:22.9256}
    .str0 {stroke:gray;stroke-width:14.11;stroke-linejoin:round;stroke-miterlimit:22.9256}
    .str2 {stroke:#4682C8;stroke-width:16.93;stroke-linecap:square;stroke-miterlimit:22.9256}
    .fil0 {fill:none}
    .fil2 {fill:gray}
    .fil1 {fill:#C8A000}
    .fil3 {fill:#FF9933}
   ]]>
  </style>
 </defs>
 <g id="Camada_x0020_1">
  <metadata id="CorelCorpID_0Corel-Layer"/>
  <rect class="fil0" x="0" y="0" width="270.92" height="270.92"/>
  <line class="fil0 str0" x1="172.82" y1="93.87" x2="63.55" y2= "207.37" />
  <path class="fil0 str1" d="M0.08 245.44l50.8 0m-25.4 25.4l0 -50.8"/>
  <g>
   <polygon class="fil1" points="42.4,228.52 47.87,208.08 53.35,187.64 68.32,202.6 83.28,217.57 62.84,223.05 "/>
   <polygon id="_1" class="fil2" points="42.4,228.52 47.87,208.08 53.35,187.64 68.32,202.6 83.28,217.57 62.84,223.05 "/>
  </g>
  <path class="fil0 str2" d="M249.64 258.12c-4.5,-128.87 -107.93,-232.3 -236.8,-236.8"/>
  <polygon id="_1_0" class="fil3" points="42.33,-0.01 42.33,42.32 -0,42.32 -0,-0.01 "/>
  <polygon id="_1_0_0" class="fil3" points="270.92,228.6 270.92,270.93 228.59,270.93 228.59,228.6 "/>
 </g>
</svg>
