<?xml version="1.0" encoding="UTF-8"?>
<!DOCTYPE svg PUBLIC "-//W3C//DTD SVG 1.1//EN" "http://www.w3.org/Graphics/SVG/1.1/DTD/svg11.dtd">
<!-- Creator: CorelDRAW 2021 (64 Bit) -->
<svg xmlns="http://www.w3.org/2000/svg" xml:space="preserve" width="2.7092mm" height="2.7092mm" version="1.1" style="shape-rendering:geometricPrecision; text-rendering:geometricPrecision; image-rendering:optimizeQuality; fill-rule:evenodd; clip-rule:evenodd"
viewBox="0 0 270.92 270.92"
 xmlns:xlink="http://www.w3.org/1999/xlink"
 xmlns:xodm="http://www.corel.com/coreldraw/odm/2003">
 <defs>
  <style type="text/css">
   <![CDATA[
    .str0 {stroke:gray;stroke-width:14.11;stroke-miterlimit:22.9256}
    .str1 {stroke:#4682C8;stroke-width:16.93;stroke-linecap:square;stroke-miterlimit:22.9256}
    .fil0 {fill:none}
    .fil2 {fill:gray}
    .fil3 {fill:#FF9933}
    .fil1 {fill:gray;fill-rule:nonzero}
   ]]>
  </style>
 </defs>
 <g id="Camada_x0020_1">
  <metadata id="CorelCorpID_0Corel-Layer"/>
  <rect class="fil0" x="0" y="0" width="270.92" height="270.92"/>
  <g id="_1220625137312">
   <g>
    <polygon class="fil1" points="62.09,107.94 62.09,93.82 67.67,93.96 73.19,94.38 78.62,95.08 83.98,96.03 89.24,97.25 94.4,98.71 99.44,100.42 104.38,102.36 109.2,104.54 113.89,106.94 118.44,109.56 122.84,112.38 127.1,115.42 131.21,118.64 135.15,122.06 138.92,125.65 142.52,129.43 145.93,133.37 149.16,137.46 152.19,141.74 155.01,146.14 157.63,150.69 160.03,155.38 162.21,160.19 164.15,165.13 165.86,170.17 167.32,175.34 168.54,180.6 169.49,185.96 170.19,191.39 170.61,196.91 170.75,202.49 156.63,202.49 156.51,197.61 156.15,192.81 155.55,188.08 154.72,183.42 153.66,178.86 152.38,174.37 150.89,169.97 149.21,165.69 147.31,161.5 145.23,157.43 142.95,153.46 140.49,149.62 137.86,145.92 135.05,142.35 132.08,138.91 128.94,135.63 125.65,132.5 122.23,129.52 118.66,126.72 114.94,124.08 111.1,121.62 107.15,119.34 103.08,117.26 98.9,115.36 94.6,113.68 90.2,112.19 85.72,110.91 81.16,109.85 76.5,109.02 71.77,108.42 66.97,108.06 "/>
   </g>
   <polygon class="fil2" points="163.65,233.47 153.07,215.14 142.49,196.81 163.65,196.81 184.82,196.81 174.24,215.14 "/>
   <polygon class="fil2" points="43.8,100.92 62.13,90.33 80.45,79.76 80.45,100.92 80.45,122.08 62.13,111.51 "/>
  </g>
  <polygon class="fil2" points="220.14,249.76 201.81,239.18 183.48,228.6 183.48,249.76 183.48,270.93 201.81,260.35 "/>
  <line class="fil0 str0" x1="200.4" y1="249.76" x2="50.79" y2= "249.76" />
  <path class="fil0 str1" d="M249.65 258.12c-4.5,-128.87 -107.93,-232.3 -236.8,-236.8"/>
  <polygon id="_1_0" class="fil3" points="270.93,228.6 270.93,270.93 228.6,270.93 228.6,228.6 "/>
  <polygon id="_1_0_0" class="fil3" points="42.33,228.6 42.33,270.93 -0,270.93 -0,228.6 "/>
  <polygon id="_1_0_1" class="fil3" points="42.33,0 42.33,42.33 -0,42.33 -0,0 "/>
 </g>
</svg>
