<?xml version="1.0" encoding="UTF-8"?>
<!DOCTYPE svg PUBLIC "-//W3C//DTD SVG 1.1//EN" "http://www.w3.org/Graphics/SVG/1.1/DTD/svg11.dtd">
<!-- Creator: CorelDRAW 2021 (64 Bit) -->
<svg xmlns="http://www.w3.org/2000/svg" xml:space="preserve" width="2.7092mm" height="2.7092mm" version="1.1" style="shape-rendering:geometricPrecision; text-rendering:geometricPrecision; image-rendering:optimizeQuality; fill-rule:evenodd; clip-rule:evenodd"
viewBox="0 0 270.92 270.92"
 xmlns:xlink="http://www.w3.org/1999/xlink"
 xmlns:xodm="http://www.corel.com/coreldraw/odm/2003">
 <defs>
  <style type="text/css">
   <![CDATA[
    .str0 {stroke:gray;stroke-width:14.11;stroke-miterlimit:22.9256}
    .str1 {stroke:#4682C8;stroke-width:16.93;stroke-linecap:square;stroke-miterlimit:22.9256}
    .fil0 {fill:none}
    .fil1 {fill:gray}
    .fil2 {fill:#FF9933}
   ]]>
  </style>
 </defs>
 <g id="Camada_x0020_1">
  <metadata id="CorelCorpID_0Corel-Layer"/>
  <rect class="fil0" x="0" y="0" width="270.92" height="270.92"/>
  <polygon class="fil1" points="21.14,50.79 31.72,69.12 42.3,87.45 21.14,87.45 -0.03,87.45 10.55,69.12 "/>
  <line class="fil0 str0" x1="21.14" y1="70.53" x2="21.14" y2= "220.14" />
  <path class="fil0 str1" d="M249.64 258.12c-4.5,-128.87 -107.93,-232.3 -236.8,-236.8"/>
  <polygon id="_1_0" class="fil2" points="42.33,-0.01 42.33,42.32 -0,42.32 -0,-0.01 "/>
  <polygon id="_1_0_0" class="fil2" points="42.32,228.6 42.32,270.93 -0.01,270.93 -0.01,228.6 "/>
  <polygon id="_1_0_1" class="fil2" points="270.92,228.6 270.92,270.93 228.59,270.93 228.59,228.6 "/>
  <polygon class="fil1" points="50.78,249.78 69.11,239.2 87.44,228.62 87.44,249.78 87.44,270.95 69.11,260.37 "/>
  <line class="fil0 str0" x1="70.52" y1="249.78" x2="220.13" y2= "249.78" />
 </g>
</svg>
