<?xml version="1.0" encoding="UTF-8"?>
<!DOCTYPE svg PUBLIC "-//W3C//DTD SVG 1.1//EN" "http://www.w3.org/Graphics/SVG/1.1/DTD/svg11.dtd">
<!-- Creator: CorelDRAW 2021 (64 Bit) -->
<svg xmlns="http://www.w3.org/2000/svg" xml:space="preserve" width="2.7092mm" height="2.7092mm" version="1.1" style="shape-rendering:geometricPrecision; text-rendering:geometricPrecision; image-rendering:optimizeQuality; fill-rule:evenodd; clip-rule:evenodd"
viewBox="0 0 270.92 270.92"
 xmlns:xlink="http://www.w3.org/1999/xlink"
 xmlns:xodm="http://www.corel.com/coreldraw/odm/2003">
 <defs>
  <style type="text/css">
   <![CDATA[
    .str0 {stroke:#4682C8;stroke-width:16.93;stroke-linecap:square;stroke-miterlimit:22.9256}
    .fil0 {fill:none}
    .fil2 {fill:gray}
    .fil3 {fill:#FF9933}
    .fil1 {fill:gray;fill-rule:nonzero}
   ]]>
  </style>
 </defs>
 <g id="Camada_x0020_1">
  <metadata id="CorelCorpID_0Corel-Layer"/>
  <rect class="fil0" x="0" y="0" width="270.92" height="270.92"/>
  <g>
   <polygon class="fil1" points="29.67,138.24 29.67,124.12 35.25,124.26 40.77,124.68 46.2,125.38 51.56,126.33 56.82,127.55 61.98,129.01 67.02,130.72 71.96,132.66 76.78,134.84 81.47,137.24 86.02,139.86 90.42,142.68 94.68,145.72 98.79,148.94 102.73,152.36 106.5,155.95 110.1,159.73 113.51,163.67 116.74,167.76 119.77,172.04 122.59,176.44 125.21,180.99 127.61,185.68 129.79,190.49 131.73,195.43 133.44,200.47 134.9,205.64 136.12,210.9 137.07,216.26 137.77,221.69 138.19,227.21 138.33,232.79 124.21,232.79 124.09,227.91 123.73,223.11 123.13,218.38 122.3,213.72 121.24,209.16 119.96,204.67 118.47,200.27 116.79,195.99 114.89,191.8 112.81,187.73 110.53,183.76 108.07,179.92 105.44,176.22 102.63,172.65 99.66,169.21 96.52,165.93 93.23,162.8 89.81,159.82 86.24,157.02 82.52,154.38 78.68,151.92 74.73,149.64 70.66,147.56 66.48,145.66 62.18,143.98 57.78,142.49 53.3,141.21 48.74,140.15 44.08,139.32 39.35,138.72 34.55,138.36 "/>
  </g>
  <polygon class="fil2" points="131.23,263.77 120.65,245.44 110.07,227.11 131.23,227.11 152.4,227.11 141.82,245.44 "/>
  <polygon class="fil2" points="7.15,131.22 25.48,120.63 43.8,110.06 43.8,131.22 43.8,152.38 25.48,141.81 "/>
  <path class="fil0 str0" d="M249.64 258.12c-4.5,-128.87 -107.93,-232.3 -236.8,-236.8"/>
  <polygon id="_1_0" class="fil3" points="42.33,-0.01 42.33,42.32 -0,42.32 -0,-0.01 "/>
  <polygon id="_1_0_0" class="fil3" points="270.92,228.6 270.92,270.93 228.59,270.93 228.59,228.6 "/>
 </g>
</svg>
