<?xml version="1.0" encoding="UTF-8"?>
<!DOCTYPE svg PUBLIC "-//W3C//DTD SVG 1.1//EN" "http://www.w3.org/Graphics/SVG/1.1/DTD/svg11.dtd">
<!-- Creator: CorelDRAW 2021 (64 Bit) -->
<svg xmlns="http://www.w3.org/2000/svg" xml:space="preserve" width="2.7092mm" height="2.7092mm" version="1.1" style="shape-rendering:geometricPrecision; text-rendering:geometricPrecision; image-rendering:optimizeQuality; fill-rule:evenodd; clip-rule:evenodd"
viewBox="0 0 270.92 270.92"
 xmlns:xlink="http://www.w3.org/1999/xlink"
 xmlns:xodm="http://www.corel.com/coreldraw/odm/2003">
 <defs>
  <style type="text/css">
   <![CDATA[
    .fil0 {fill:none}
    .fil4 {fill:#4682C8}
    .fil3 {fill:#FF9933}
    .fil2 {fill:white}
    .fil1 {fill:gray;fill-rule:nonzero}
   ]]>
  </style>
 </defs>
 <g id="Camada_x0020_1">
  <metadata id="CorelCorpID_0Corel-Layer"/>
  <rect class="fil0" x="-0.01" y="-0" width="270.93" height="270.93"/>
  <g>
   <path class="fil1" d="M70.54 96.32l0 -17.64 0 0 1.24 0.01 1.23 0.05 1.22 0.07 1.23 0.11 1.23 0.14 1.2 0.17 1.18 0.19 1.21 0.22 1.19 0.25 1.21 0.29 1.19 0.32 1.13 0.33 1.17 0.37 1.13 0.39 1.12 0.41 1.18 0.47 1.1 0.48 1.07 0.49 1.13 0.55 1.06 0.55 1.05 0.58 1.06 0.61 1.03 0.64 1.04 0.67 1.01 0.7 0.95 0.68 0.98 0.73 0.98 0.79 0.94 0.79 0.92 0.82 0.9 0.83 0.88 0.86 -12.46 12.48 -0.58 -0.56 -0.58 -0.55 -0.6 -0.52 -0.6 -0.51 -0.6 -0.47 -0.62 -0.47 -0.69 -0.5 -0.63 -0.44 -0.64 -0.41 -0.69 -0.42 -0.66 -0.39 -0.71 -0.38 -0.7 -0.37 -0.67 -0.33 -0.75 -0.33 -0.72 -0.32 -0.68 -0.27 -0.74 -0.27 -0.77 -0.27 -0.73 -0.23 -0.79 -0.23 -0.73 -0.2 -0.75 -0.17 -0.77 -0.17 -0.75 -0.14 -0.82 -0.13 -0.78 -0.11 -0.77 -0.08 -0.79 -0.07 -0.8 -0.05 -0.79 -0.03 -0.8 -0.01 0 0zm0 0c-4.87,0 -8.82,-3.95 -8.82,-8.82 0,-4.87 3.95,-8.82 8.82,-8.82l0 17.64zm-32.09 32.07l-17.64 0 0.06 -2.54 0.2 -2.53 0.31 -2.49 0.44 -2.46 0.56 -2.4 0.67 -2.35 0.78 -2.33 0.89 -2.25 0.99 -2.21 1.11 -2.15 1.19 -2.07 1.31 -2.03 1.37 -1.92 1.48 -1.89 1.57 -1.81 1.62 -1.71 1.74 -1.66 1.81 -1.55 1.86 -1.48 1.98 -1.4 2.01 -1.29 2.07 -1.18 2.14 -1.1 2.22 -1.01 2.27 -0.89 2.31 -0.77 2.35 -0.67 2.4 -0.56 2.46 -0.44 2.49 -0.31 2.53 -0.2 2.54 -0.06 0 17.64 -1.66 0.04 -1.63 0.12 -1.61 0.21 -1.56 0.28 -1.56 0.36 -1.53 0.43 -1.49 0.51 -1.45 0.57 -1.4 0.63 -1.4 0.72 -1.35 0.78 -1.31 0.83 -1.24 0.88 -1.22 0.96 -1.17 1.01 -1.1 1.06 -1.08 1.13 -1.01 1.15 -0.94 1.21 -0.91 1.28 -0.83 1.29 -0.77 1.35 -0.71 1.37 -0.63 1.41 -0.59 1.47 -0.5 1.47 -0.43 1.53 -0.36 1.56 -0.28 1.56 -0.21 1.61 -0.12 1.63 -0.04 1.66zm0 0l0 86.19 -17.64 0 0 -86.19 17.64 0zm161.93 46.21l0 17.64 0 0 -1.24 -0.01 -1.23 -0.05 -1.22 -0.07 -1.23 -0.11 -1.22 -0.14 -1.22 -0.17 -1.17 -0.19 -1.21 -0.22 -1.21 -0.26 -1.19 -0.28 -1.19 -0.32 -1.14 -0.33 -1.18 -0.37 -1.11 -0.39 -1.11 -0.4 -1.2 -0.48 -1.1 -0.48 -1.07 -0.49 -1.13 -0.55 -1.06 -0.55 -1.05 -0.58 -1.06 -0.61 -1.03 -0.64 -1.04 -0.67 -1.01 -0.7 -0.95 -0.68 -0.98 -0.73 -0.98 -0.79 -0.94 -0.79 -0.92 -0.82 -0.9 -0.83 -0.88 -0.86 12.46 -12.48 0.58 0.56 0.58 0.55 0.6 0.52 0.6 0.51 0.6 0.47 0.62 0.47 0.69 0.5 0.63 0.44 0.64 0.41 0.69 0.42 0.66 0.39 0.71 0.38 0.7 0.37 0.67 0.33 0.75 0.33 0.72 0.32 0.66 0.26 0.77 0.28 0.77 0.27 0.72 0.23 0.78 0.23 0.75 0.2 0.75 0.18 0.75 0.16 0.77 0.14 0.81 0.13 0.78 0.11 0.78 0.08 0.79 0.07 0.8 0.05 0.79 0.03 0.8 0.01 0 0zm0 0c4.87,0 8.82,3.95 8.82,8.82 0,4.87 -3.95,8.82 -8.82,8.82l0 -17.64zm32.09 -32.07l17.64 0 -0.06 2.54 -0.2 2.53 -0.31 2.49 -0.44 2.46 -0.56 2.4 -0.67 2.35 -0.78 2.33 -0.89 2.25 -0.99 2.21 -1.11 2.15 -1.19 2.07 -1.31 2.03 -1.37 1.92 -1.48 1.89 -1.57 1.81 -1.62 1.71 -1.74 1.66 -1.81 1.55 -1.86 1.48 -1.98 1.4 -2.01 1.29 -2.07 1.18 -2.14 1.1 -2.22 1.01 -2.27 0.89 -2.31 0.77 -2.35 0.67 -2.4 0.56 -2.46 0.44 -2.49 0.31 -2.53 0.2 -2.54 0.06 0 -17.64 1.66 -0.04 1.63 -0.12 1.61 -0.21 1.56 -0.28 1.56 -0.36 1.53 -0.43 1.49 -0.51 1.45 -0.57 1.4 -0.63 1.4 -0.72 1.35 -0.78 1.31 -0.83 1.24 -0.88 1.22 -0.96 1.17 -1.01 1.1 -1.06 1.08 -1.13 1.01 -1.15 0.94 -1.21 0.91 -1.28 0.83 -1.29 0.77 -1.35 0.71 -1.37 0.63 -1.41 0.59 -1.47 0.5 -1.47 0.43 -1.53 0.36 -1.56 0.28 -1.56 0.21 -1.61 0.12 -1.63 0.04 -1.66zm0 0l0 -86.19 17.64 0 0 86.19 -17.64 0zm-126.76 -49.29l71.97 71.97 -12.48 12.48 -71.97 -71.97 12.48 -12.48z"/>
  </g>
  <g>
   <path class="fil2" d="M22.9 263.51c-20.24,-11.69 -27.18,-37.57 -15.49,-57.81 11.68,-20.25 37.57,-27.18 57.81,-15.5 20.24,11.69 27.18,37.58 15.49,57.82 -11.68,20.24 -37.57,27.18 -57.81,15.49z"/>
   <path id="_1" class="fil3" d="M22.9 263.51c-20.24,-11.69 -27.18,-37.57 -15.49,-57.81 11.68,-20.25 37.57,-27.18 57.81,-15.5 20.24,11.69 27.18,37.58 15.49,57.82 -11.68,20.24 -37.57,27.18 -57.81,15.49zm-2.7 -30.25c1.56,5.85 5.28,11.13 10.76,14.56 0.62,0.32 1.22,0.67 1.8,1.07 5.62,2.87 11.94,3.37 17.71,1.83 5.83,-1.57 11.12,-5.28 14.54,-10.75 0.32,-0.62 0.67,-1.22 1.07,-1.8 2.87,-5.62 3.38,-11.94 1.84,-17.71 -1.63,-6.12 -5.62,-11.62 -11.52,-15.03l0.01 -0.03c-5.86,-3.36 -12.62,-4.05 -18.76,-2.4 -6.06,1.62 -11.51,5.51 -14.89,11.24 -0.04,0.07 -0.08,0.14 -0.12,0.21 -3.39,5.88 -4.08,12.66 -2.44,18.81z"/>
  </g>
  <g>
   <path class="fil2" d="M114.29 172.11c-20.24,-11.69 -27.18,-37.58 -15.49,-57.82 11.69,-20.24 37.57,-27.18 57.82,-15.49 20.24,11.69 27.18,37.57 15.49,57.82 -11.69,20.24 -37.58,27.17 -57.82,15.49z"/>
   <path id="_1_0" class="fil4" d="M114.29 172.11c-20.24,-11.69 -27.18,-37.58 -15.49,-57.82 11.69,-20.24 37.57,-27.18 57.82,-15.49 20.24,11.69 27.18,37.57 15.49,57.82 -11.69,20.24 -37.58,27.17 -57.82,15.49zm-2.7 -30.26c1.63,6.12 5.62,11.62 11.52,15.03l-0.02 0.03c5.87,3.36 12.63,4.05 18.77,2.4 6.14,-1.64 11.65,-5.6 15.02,-11.44 3.4,-5.89 4.08,-12.68 2.44,-18.82 -1.63,-6.11 -5.62,-11.61 -11.52,-15.02l0.02 -0.03c-5.88,-3.37 -12.65,-4.05 -18.77,-2.41 -6.11,1.63 -11.61,5.62 -15.02,11.52l-0.03 -0.02c-3.36,5.87 -4.05,12.63 -2.41,18.76z"/>
  </g>
  <g>
   <path class="fil2" d="M205.69 80.71c-20.24,-11.69 -27.17,-37.58 -15.49,-57.82 11.69,-20.24 37.58,-27.18 57.82,-15.49 20.24,11.69 27.18,37.57 15.49,57.82 -11.69,20.24 -37.57,27.17 -57.82,15.49z"/>
   <path id="_1_1" class="fil4" d="M205.69 80.71c-20.24,-11.69 -27.17,-37.58 -15.49,-57.82 11.69,-20.24 37.58,-27.18 57.82,-15.49 20.24,11.69 27.18,37.57 15.49,57.82 -11.69,20.24 -37.57,27.17 -57.82,15.49zm-2.69 -30.25c1.64,6.14 5.6,11.65 11.44,15.02 5.89,3.39 12.66,4.08 18.82,2.43 6.14,-1.64 11.65,-5.6 15.02,-11.44 3.39,-5.88 4.08,-12.67 2.44,-18.82 -1.63,-6.11 -5.62,-11.61 -11.52,-15.02l0.02 -0.03c-5.87,-3.36 -12.63,-4.05 -18.76,-2.41 -6.12,1.63 -11.62,5.62 -15.03,11.52l-0.03 -0.02c-3.36,5.87 -4.05,12.63 -2.4,18.77z"/>
  </g>
 </g>
</svg>
