<?xml version="1.0" encoding="UTF-8"?>
<!DOCTYPE svg PUBLIC "-//W3C//DTD SVG 1.1//EN" "http://www.w3.org/Graphics/SVG/1.1/DTD/svg11.dtd">
<!-- Creator: CorelDRAW 2021 (64 Bit) -->
<svg xmlns="http://www.w3.org/2000/svg" xml:space="preserve" width="2.7092mm" height="2.7092mm" version="1.1" style="shape-rendering:geometricPrecision; text-rendering:geometricPrecision; image-rendering:optimizeQuality; fill-rule:evenodd; clip-rule:evenodd"
viewBox="0 0 270.92 270.92"
 xmlns:xlink="http://www.w3.org/1999/xlink"
 xmlns:xodm="http://www.corel.com/coreldraw/odm/2003">
 <defs>
  <style type="text/css">
   <![CDATA[
    .fil0 {fill:none}
    .fil3 {fill:#4682C8}
    .fil2 {fill:#FF9933}
    .fil1 {fill:white}
   ]]>
  </style>
 </defs>
 <g id="Camada_x0020_1">
  <metadata id="CorelCorpID_0Corel-Layer"/>
  <rect class="fil0" x="-0.01" y="-0" width="270.93" height="270.93"/>
  <g>
   <path class="fil1" d="M21.24 172.11c-20.24,-11.69 -27.18,-37.57 -15.49,-57.81 11.68,-20.24 37.57,-27.18 57.81,-15.49 20.24,11.68 27.18,37.57 15.49,57.81 -11.69,20.24 -37.57,27.17 -57.81,15.49z"/>
   <path id="_1" class="fil2" d="M21.24 172.11c-20.24,-11.69 -27.18,-37.57 -15.49,-57.81 11.68,-20.24 37.57,-27.18 57.81,-15.49 20.24,11.68 27.18,37.57 15.49,57.81 -11.69,20.24 -37.57,27.17 -57.81,15.49zm-2.7 -30.25c1.63,6.11 5.62,11.61 11.52,15.02l-0.02 0.03c5.87,3.36 12.63,4.05 18.76,2.4 5.78,-1.54 10.99,-5.14 14.4,-10.42 0.35,-0.73 0.76,-1.44 1.23,-2.13 2.87,-5.62 3.37,-11.94 1.83,-17.71 -1.56,-5.83 -5.27,-11.11 -10.75,-14.54 -0.63,-0.33 -1.24,-0.69 -1.83,-1.09 -5.61,-2.86 -11.93,-3.36 -17.69,-1.82 -5.83,1.56 -11.11,5.27 -14.54,10.75 -0.32,0.62 -0.67,1.22 -1.07,1.8 -2.87,5.62 -3.38,11.94 -1.84,17.71z"/>
  </g>
  <g>
   <path class="fil1" d="M71.99 87.5c-20.23,-11.68 -27.17,-37.57 -15.49,-57.81 11.69,-20.24 37.57,-27.17 57.81,-15.49 20.24,11.69 27.18,37.57 15.49,57.81 -11.68,20.24 -37.57,27.18 -57.81,15.49z"/>
   <path id="_1_0" class="fil3" d="M71.99 87.5c-20.23,-11.68 -27.17,-37.57 -15.49,-57.81 11.69,-20.24 37.57,-27.17 57.81,-15.49 20.24,11.69 27.18,37.57 15.49,57.81 -11.68,20.24 -37.57,27.18 -57.81,15.49zm-2.69 -30.25c1.54,5.78 5.14,10.99 10.42,14.4 0.73,0.35 1.44,0.76 2.13,1.23 5.62,2.87 11.94,3.37 17.71,1.83 5.84,-1.57 11.11,-5.27 14.54,-10.75 0.32,-0.62 0.67,-1.22 1.07,-1.8 2.87,-5.62 3.38,-11.94 1.84,-17.71 -1.63,-6.11 -5.62,-11.61 -11.52,-15.02l0.02 -0.03c-5.87,-3.36 -12.63,-4.05 -18.76,-2.4 -6.14,1.64 -11.65,5.6 -15.02,11.44 -3.39,5.88 -4.07,12.66 -2.43,18.81z"/>
  </g>
  <g>
   <path class="fil1" d="M72 256.71c-20.25,-11.69 -27.18,-37.57 -15.5,-57.81 11.69,-20.25 37.58,-27.18 57.82,-15.49 20.24,11.68 27.18,37.57 15.49,57.81 -11.69,20.24 -37.57,27.18 -57.81,15.49z"/>
   <path id="_1_1" class="fil3" d="M72 256.71c-20.25,-11.69 -27.18,-37.57 -15.5,-57.81 11.69,-20.25 37.58,-27.18 57.82,-15.49 20.24,11.68 27.18,37.57 15.49,57.81 -11.69,20.24 -37.57,27.18 -57.81,15.49zm-2.7 -30.24c1.64,6.13 5.6,11.64 11.45,15.01 5.88,3.39 12.66,4.08 18.81,2.44 5.85,-1.56 11.13,-5.28 14.56,-10.76 0.32,-0.62 0.67,-1.22 1.07,-1.8 2.87,-5.62 3.37,-11.94 1.83,-17.71 -1.57,-5.84 -5.27,-11.11 -10.75,-14.54 -0.51,-0.27 -1.01,-0.56 -1.5,-0.87 -5.7,-3.04 -12.15,-3.61 -18.02,-2.04 -6.1,1.63 -11.61,5.6 -15.02,11.51l-0.03 -0.01c-3.36,5.86 -4.05,12.63 -2.4,18.77z"/>
  </g>
  <g>
   <path class="fil1" d="M165.07 256.72c-20.24,-11.69 -27.18,-37.57 -15.49,-57.81 11.68,-20.24 37.57,-27.18 57.81,-15.49 20.23,11.68 27.17,37.57 15.49,57.81 -11.69,20.24 -37.57,27.17 -57.81,15.49z"/>
   <path id="_1_2" class="fil3" d="M165.07 256.72c-20.24,-11.69 -27.18,-37.57 -15.49,-57.81 11.68,-20.24 37.57,-27.18 57.81,-15.49 20.23,11.68 27.17,37.57 15.49,57.81 -11.69,20.24 -37.57,27.17 -57.81,15.49zm-2.7 -30.25c1.63,6.11 5.62,11.61 11.52,15.02l-0.02 0.03c5.87,3.36 12.63,4.05 18.76,2.4 6.14,-1.64 11.65,-5.6 15.02,-11.44 3.39,-5.88 4.07,-12.66 2.43,-18.81 -1.54,-5.78 -5.14,-10.99 -10.42,-14.4 -0.73,-0.35 -1.44,-0.76 -2.13,-1.23 -5.62,-2.87 -11.94,-3.37 -17.71,-1.83 -5.84,1.57 -11.11,5.27 -14.54,10.75 -0.32,0.62 -0.67,1.22 -1.07,1.8 -2.87,5.62 -3.38,11.94 -1.84,17.71z"/>
  </g>
  <g>
   <path class="fil1" d="M207.36 172.11c-20.24,-11.68 -27.18,-37.57 -15.49,-57.81 11.69,-20.24 37.57,-27.17 57.81,-15.49 20.24,11.69 27.18,37.57 15.49,57.81 -11.68,20.24 -37.57,27.18 -57.81,15.49z"/>
   <path id="_1_3" class="fil3" d="M215.41 156.41c0.63,0.33 1.24,0.69 1.83,1.09 5.61,2.86 11.93,3.36 17.69,1.82 5.83,-1.56 11.11,-5.27 14.54,-10.75 0.32,-0.62 0.67,-1.22 1.07,-1.8 2.87,-5.62 3.38,-11.94 1.84,-17.71 -1.63,-6.11 -5.62,-11.61 -11.52,-15.02l0.02 -0.03c-5.87,-3.36 -12.63,-4.05 -18.76,-2.4 -5.78,1.54 -10.99,5.14 -14.4,10.42 -0.35,0.73 -0.76,1.44 -1.23,2.13 -2.87,5.62 -3.37,11.94 -1.83,17.71 1.56,5.83 5.27,11.11 10.75,14.54zm-8.05 15.7c-20.24,-11.68 -27.18,-37.57 -15.49,-57.81 11.69,-20.24 37.57,-27.17 57.81,-15.49 20.24,11.69 27.18,37.57 15.49,57.81 -11.68,20.24 -37.57,27.18 -57.81,15.49z"/>
  </g>
  <g>
   <path class="fil1" d="M165.06 87.51c-20.24,-11.68 -27.18,-37.57 -15.49,-57.81 11.69,-20.24 37.57,-27.18 57.81,-15.49 20.25,11.68 27.18,37.57 15.5,57.81 -11.69,20.25 -37.58,27.18 -57.82,15.49z"/>
   <path id="_1_4" class="fil3" d="M173.11 71.81c0.51,0.27 1.01,0.56 1.5,0.87 5.7,3.04 12.15,3.61 18.02,2.04 6.1,-1.63 11.61,-5.6 15.02,-11.51l0.02 0.01c3.37,-5.87 4.06,-12.62 2.41,-18.77 -1.62,-6.06 -5.51,-11.51 -11.24,-14.89 -0.07,-0.04 -0.14,-0.08 -0.21,-0.12 -5.88,-3.39 -12.66,-4.08 -18.81,-2.44 -5.85,1.56 -11.13,5.28 -14.56,10.76 -0.32,0.62 -0.67,1.22 -1.07,1.8 -2.87,5.62 -3.37,11.94 -1.83,17.71 1.57,5.84 5.27,11.11 10.75,14.54zm-8.05 15.7c-20.24,-11.68 -27.18,-37.57 -15.49,-57.81 11.69,-20.24 37.57,-27.18 57.81,-15.49 20.25,11.68 27.18,37.57 15.5,57.81 -11.69,20.25 -37.58,27.18 -57.82,15.49z"/>
  </g>
 </g>
</svg>
