<?xml version="1.0" encoding="UTF-8"?>
<!DOCTYPE svg PUBLIC "-//W3C//DTD SVG 1.1//EN" "http://www.w3.org/Graphics/SVG/1.1/DTD/svg11.dtd">
<!-- Creator: CorelDRAW 2021 (64 Bit) -->
<svg xmlns="http://www.w3.org/2000/svg" xml:space="preserve" width="2.7092mm" height="2.7092mm" version="1.1" style="shape-rendering:geometricPrecision; text-rendering:geometricPrecision; image-rendering:optimizeQuality; fill-rule:evenodd; clip-rule:evenodd"
viewBox="0 0 270.92 270.92"
 xmlns:xlink="http://www.w3.org/1999/xlink"
 xmlns:xodm="http://www.corel.com/coreldraw/odm/2003">
 <defs>
  <style type="text/css">
   <![CDATA[
    .fil0 {fill:none}
    .fil2 {fill:#FF9933}
    .fil1 {fill:#4682C8;fill-rule:nonzero}
   ]]>
  </style>
 </defs>
 <g id="Camada_x0020_1">
  <metadata id="CorelCorpID_0Corel-Layer"/>
  <rect class="fil0" x="0" y="0" width="270.92" height="270.92"/>
  <g>
   <path class="fil1" d="M16.92 198.67l42.4 0 0 17.64 -42.4 0 -8.82 -8.82 8.82 -8.82zm0 17.64l-8.82 0 0 -8.82 8.82 8.82zm8.82 -178.16l0 169.34 -17.64 0 0 -169.34 8.82 -8.82 8.82 8.82zm-17.64 0l0 -8.82 8.82 0 -8.82 8.82zm245.9 8.82l-237.08 0 0 -17.64 237.08 0 8.82 8.82 -8.82 8.82zm0 -17.64l8.82 0 0 8.82 -8.82 -8.82zm-8.82 178.16l0 -169.34 17.64 0 0 169.34 -8.82 8.82 -8.82 -8.82zm17.64 0l0 8.82 -8.82 0 8.82 -8.82zm-135.82 -8.82l127 0 0 17.64 -127 0 0 -17.64z"/>
  </g>
  <polygon id="_1_0" class="fil2" points="71.99,186.21 114.32,186.21 114.32,228.54 71.99,228.54 "/>
 </g>
</svg>
