<?xml version="1.0" encoding="UTF-8"?>
<!DOCTYPE svg PUBLIC "-//W3C//DTD SVG 1.1//EN" "http://www.w3.org/Graphics/SVG/1.1/DTD/svg11.dtd">
<!-- Creator: CorelDRAW 2021 (64 Bit) -->
<svg xmlns="http://www.w3.org/2000/svg" xml:space="preserve" width="2.7092mm" height="2.7092mm" version="1.1" style="shape-rendering:geometricPrecision; text-rendering:geometricPrecision; image-rendering:optimizeQuality; fill-rule:evenodd; clip-rule:evenodd"
viewBox="0 0 270.92 270.92"
 xmlns:xlink="http://www.w3.org/1999/xlink"
 xmlns:xodm="http://www.corel.com/coreldraw/odm/2003">
 <defs>
  <style type="text/css">
   <![CDATA[
    .str0 {stroke:#4682C8;stroke-width:17.64;stroke-linejoin:round;stroke-miterlimit:22.9256}
    .fil0 {fill:none}
    .fil2 {fill:#4682C8}
    .fil1 {fill:#FF9933;fill-rule:nonzero}
   ]]>
  </style>
 </defs>
 <g id="Camada_x0020_1">
  <metadata id="CorelCorpID_0Corel-Layer"/>
  <rect class="fil0" x="-0.01" y="-0" width="270.93" height="270.93"/>
  <rect class="fil0" x="-0.01" y="0.03" width="270.92" height="270.92"/>
  <g id="_2557806749744">
   <path class="fil1" d="M262.46 254.28l-16.5 0 0 0 0 0.25 0 0.24 0 0.25 0 0.25 0 0.09 -0.01 0.24 0 0.42 0 0.24 0 0.09 -0.01 0.25 0 0.41 0 0.08 -0.01 0.25 0 0.25 -0.01 0.25 0 0.24 -0.01 0.26 0 0.24 -0.01 0.25 0 0.24 0 0.11 -0.01 0.39 0 0.24 0 0.11 -0.02 0.39 0 0.25 0 0.09 -0.01 0.26 -0.02 0.39 0 0.24 0 0.11 -0.02 0.29 16.5 0.52 0 -0.2 0.01 -0.4 0 -0.24 0 -0.1 0.01 -0.25 0.02 -0.39 0 -0.25 0 -0.1 0.02 -0.4 0 -0.24 0 -0.1 0.02 -0.4 0 -0.24 0.01 -0.25 0 -0.25 0.01 -0.25 0 -0.24 0.01 -0.25 0 -0.25 0.01 -0.25 0 -0.4 0 -0.1 0.01 -0.24 0 -0.41 0 -0.24 0 -0.1 0.01 -0.24 0 -0.41 0 -0.25 0 -0.25 0 -0.24 0 -0.25 0 0zm0 0c0,-4.56 -3.7,-8.25 -8.25,-8.25 -4.56,0 -8.25,3.69 -8.25,8.25l16.5 0zm-245.76 -245.82l0 16.5 0 0 11.81 0.3 11.64 0.88 11.48 1.47 11.28 2.01 11.09 2.56 10.88 3.09 10.65 3.6 10.41 4.1 10.15 4.6 9.88 5.06 9.61 5.52 9.29 5.97 9 6.39 8.66 6.81 8.32 7.21 7.96 7.59 7.6 7.97 7.21 8.32 6.8 8.67 6.39 8.99 5.97 9.3 5.51 9.61 5.06 9.88 4.6 10.16 4.11 10.41 3.6 10.65 3.08 10.88 2.56 11.09 2.01 11.29 1.47 11.48 0.88 11.64 0.3 11.82 16.5 0 -0.32 -12.64 -0.96 -12.49 -1.56 -12.3 -2.16 -12.11 -2.75 -11.89 -3.31 -11.67 -3.86 -11.42 -4.4 -11.17 -4.92 -10.89 -5.43 -10.6 -5.91 -10.3 -6.4 -9.97 -6.85 -9.63 -7.3 -9.29 -7.71 -8.91 -8.14 -8.55 -8.54 -8.14 -8.91 -7.71 -9.29 -7.3 -9.63 -6.85 -9.97 -6.4 -10.29 -5.91 -10.6 -5.44 -10.88 -4.92 -11.18 -4.4 -11.41 -3.86 -11.66 -3.32 -11.9 -2.75 -12.11 -2.16 -12.29 -1.56 -12.48 -0.95 -12.64 -0.32 0 0zm0 0c-4.55,0 -8.24,3.69 -8.24,8.25 0,4.55 3.69,8.25 8.24,8.25l0 -16.5zm-8.17 0.14l0.52 16.5 0.29 -0.02 0.11 0 0.24 0 0.39 -0.02 0.25 -0.01 0.1 0 0.25 0 0.4 -0.02 0.09 0 0.25 0 0.39 -0.02 0.11 0 0.24 0 0.24 0 0.25 0 0.25 -0.01 0.25 0 0.24 -0.01 0.25 0 0.25 -0.01 0.09 0 0.4 0 0.25 -0.01 0.09 0 0.24 0 0.41 0 0.25 -0.01 0.09 0 0.24 0 0.26 0 0.24 0 0.25 0 0 -16.5 -0.25 0 -0.24 0 -0.26 0 -0.24 0 -0.41 0 -0.24 0.01 -0.1 0 -0.24 0 -0.41 0 -0.24 0.01 -0.09 0 -0.41 0 -0.24 0.01 -0.26 0 -0.24 0.01 -0.25 0 -0.24 0.01 -0.26 0 -0.24 0.01 -0.24 0 -0.4 0.01 -0.1 0 -0.25 0 -0.4 0.02 -0.09 0 -0.25 0 -0.39 0.02 -0.25 0.01 -0.1 0 -0.24 0 -0.4 0.02 -0.2 0z"/>
  </g>
  <line class="fil0 str0" x1="155.9" y1="115.03" x2="12.69" y2= "258.23" />
  <polygon class="fil2" points="173.77,97.16 147.19,104.28 120.61,111.4 140.07,130.86 159.52,150.32 166.65,123.74 "/>
 </g>
</svg>
