<?xml version="1.0" encoding="UTF-8"?>
<!DOCTYPE svg PUBLIC "-//W3C//DTD SVG 1.1//EN" "http://www.w3.org/Graphics/SVG/1.1/DTD/svg11.dtd">
<!-- Creator: CorelDRAW 2021 (64 Bit) -->
<svg xmlns="http://www.w3.org/2000/svg" xml:space="preserve" width="2.7092mm" height="2.7092mm" version="1.1" style="shape-rendering:geometricPrecision; text-rendering:geometricPrecision; image-rendering:optimizeQuality; fill-rule:evenodd; clip-rule:evenodd"
viewBox="0 0 270.92 270.92"
 xmlns:xlink="http://www.w3.org/1999/xlink"
 xmlns:xodm="http://www.corel.com/coreldraw/odm/2003">
 <defs>
  <style type="text/css">
   <![CDATA[
    .fil0 {fill:none}
    .fil1 {fill:gray}
    .fil3 {fill:url(#id0)}
    .fil2 {fill:url(#id1)}
    .fil4 {fill:url(#id2)}
   ]]>
  </style>
  <linearGradient id="id0" gradientUnits="userSpaceOnUse" x1="217.74" y1="17.63" x2="253.29" y2="53.18">
   <stop offset="0" style="stop-opacity:1; stop-color:#24292E"/>
   <stop offset="0.321569" style="stop-opacity:1; stop-color:#B0BFBF"/>
   <stop offset="1" style="stop-opacity:1; stop-color:#24292E"/>
  </linearGradient>
  <linearGradient id="id1" gradientUnits="userSpaceOnUse" x1="179.21" y1="56.15" x2="214.77" y2="91.71">
   <stop offset="0" style="stop-opacity:1; stop-color:#FA9E0D"/>
   <stop offset="0.321569" style="stop-opacity:1; stop-color:#FEFEFE"/>
   <stop offset="1" style="stop-opacity:1; stop-color:#D97300"/>
  </linearGradient>
  <linearGradient id="id2" gradientUnits="userSpaceOnUse" x1="142.17" y1="105.04" x2="183.66" y2="122.82">
   <stop offset="0" style="stop-opacity:1; stop-color:#382B26"/>
   <stop offset="0.321569" style="stop-opacity:1; stop-color:#E3E3DE"/>
   <stop offset="1" style="stop-opacity:1; stop-color:#382B26"/>
  </linearGradient>
 </defs>
 <g id="Camada_x0020_1">
  <metadata id="CorelCorpID_0Corel-Layer"/>
  <rect class="fil0" x="-0.01" y="-0" width="270.93" height="270.93"/>
  <path class="fil1" d="M62.2 42.31c29.67,0 53.74,24.05 53.73,53.73 0,3.24 -0.27,6.41 -0.82,9.49l104.5 104.51 -0.01 0c5.57,5.56 9,13.23 9,21.71 0,16.95 -13.75,30.7 -30.7,30.71 -8.48,0 -16.15,-3.45 -21.71,-9.01l-0.51 -0.52 -104 -103.98c-3.08,0.55 -6.25,0.82 -9.48,0.82 -29.67,0 -53.73,-24.06 -53.73,-53.73 0,-6.32 1.1,-12.4 3.11,-18.04l33.94 33.94 0.39 0.39c4.16,4.16 9.92,6.74 16.27,6.73 12.73,0.01 23.05,-10.3 23.03,-23.02 0.02,-6.36 -2.57,-12.11 -6.73,-16.27l-34.34 -34.35c5.64,-2.01 11.73,-3.11 18.06,-3.11z"/>
  <g id="_2778028281296">
   <polygon class="fil2" points="239.96,66.52 189.58,116.89 154.03,81.34 204.4,30.96 "/>
   <polygon class="fil3" points="231.07,4.29 204.4,30.96 239.96,66.52 266.63,39.85 "/>
   <polygon class="fil4" points="154.02,81.35 189.57,116.9 148.1,122.82 "/>
  </g>
 </g>
</svg>
