<?xml version="1.0" encoding="UTF-8"?>
<!DOCTYPE svg PUBLIC "-//W3C//DTD SVG 1.1//EN" "http://www.w3.org/Graphics/SVG/1.1/DTD/svg11.dtd">
<!-- Creator: CorelDRAW 2021 (64 Bit) -->
<svg xmlns="http://www.w3.org/2000/svg" xml:space="preserve" width="2.7092mm" height="2.7092mm" version="1.1" style="shape-rendering:geometricPrecision; text-rendering:geometricPrecision; image-rendering:optimizeQuality; fill-rule:evenodd; clip-rule:evenodd"
viewBox="0 0 270.92 270.92"
 xmlns:xlink="http://www.w3.org/1999/xlink"
 xmlns:xodm="http://www.corel.com/coreldraw/odm/2003">
 <defs>
  <style type="text/css">
   <![CDATA[
    .str1 {stroke:#999999;stroke-width:17.64;stroke-miterlimit:22.9256}
    .str2 {stroke:#4682C8;stroke-width:17.64;stroke-linejoin:round;stroke-miterlimit:22.9256}
    .str0 {stroke:#FF9933;stroke-width:17.64;stroke-linejoin:round;stroke-miterlimit:22.9256}
    .fil0 {fill:none}
   ]]>
  </style>
 </defs>
 <g id="Camada_x0020_1">
  <metadata id="CorelCorpID_0Corel-Layer"/>
  <rect class="fil0" x="-0.01" y="-0" width="270.93" height="270.93"/>
  <path class="fil0 str0" d="M245.57 165.09l-0.04 105.84m-245.55 -245.55l105.81 0"/>
  <path class="fil0 str1" d="M194.84 25.39l-17.04 0m67.72 50.69l0.01 17.04m0 42.18l0 17.04m0 -46.65l0 17.04m0 -76.25l0 17.02m0 -46.63l0 17.03m-109.91 -8.51l-17.04 0m46.65 0l-17.04 0m76.25 0l-17.02 0m46.63 0l-17.03 0"/>
  <path class="fil0 str2" d="M118.49 25.43c70.15,0 127.01,56.86 127.01,127"/>
 </g>
</svg>
