<?xml version="1.0" encoding="UTF-8"?>
<!DOCTYPE svg PUBLIC "-//W3C//DTD SVG 1.1//EN" "http://www.w3.org/Graphics/SVG/1.1/DTD/svg11.dtd">
<!-- Creator: CorelDRAW 2021 (64 Bit) -->
<svg xmlns="http://www.w3.org/2000/svg" xml:space="preserve" width="2.7092mm" height="2.7092mm" version="1.1" style="shape-rendering:geometricPrecision; text-rendering:geometricPrecision; image-rendering:optimizeQuality; fill-rule:evenodd; clip-rule:evenodd"
viewBox="0 0 270.92 270.92"
 xmlns:xlink="http://www.w3.org/1999/xlink"
 xmlns:xodm="http://www.corel.com/coreldraw/odm/2003">
 <defs>
  <style type="text/css">
   <![CDATA[
    .fil0 {fill:none}
    .fil2 {fill:gray}
    .fil1 {fill:white}
    .fil3 {fill:#4682C8;fill-rule:nonzero}
   ]]>
  </style>
 </defs>
 <g id="Camada_x0020_1">
  <metadata id="CorelCorpID_0Corel-Layer"/>
  <rect class="fil0" x="-0.01" y="-0" width="270.93" height="270.93"/>
  <g>
   <path class="fil1" d="M135.46 8.47c70.13,0 126.99,56.85 126.99,126.99 0,70.14 -56.86,126.99 -126.99,126.99 -70.13,0 -126.99,-56.85 -126.99,-126.99 0,-70.14 56.86,-126.99 126.99,-126.99z"/>
   <path id="_1" class="fil2" d="M135.46 8.47c70.13,0 126.99,56.85 126.99,126.99 0,70.14 -56.86,126.99 -126.99,126.99 -70.13,0 -126.99,-56.85 -126.99,-126.99 0,-70.14 56.86,-126.99 126.99,-126.99zm81.09 45.9c-20.74,-20.73 -49.41,-33.55 -81.09,-33.55 -31.37,0 -59.79,12.57 -80.49,32.95 -0.18,0.21 -0.38,0.42 -0.58,0.62 -20.73,20.73 -33.57,49.41 -33.57,81.07 0,31.66 12.84,60.34 33.57,81.07l-0.02 0.02c20.74,20.73 49.41,33.55 81.09,33.55 31.37,0 59.79,-12.57 80.49,-32.95 0.18,-0.21 0.38,-0.42 0.58,-0.62 20.73,-20.73 33.57,-49.41 33.57,-81.07 0,-31.66 -12.84,-60.34 -33.57,-81.07l0.02 -0.02z"/>
  </g>
  <path class="fil3" d="M122.3 160.99c0,-0.73 0,-1.47 -0.04,-2.2 -0.04,-0.78 -0.08,-1.53 -0.08,-2.26 0,-7.83 1.64,-14.26 4.92,-19.3 3.27,-5.05 8.27,-9.91 14.99,-14.6 6.6,-4.62 11.48,-8.77 14.68,-12.37 3.19,-3.6 4.79,-8.07 4.79,-13.4 0,-5.73 -2.09,-10.41 -6.22,-14.1 -4.19,-3.64 -10.54,-5.45 -19.1,-5.45 -8.9,0 -15.79,2.01 -20.66,6.1 -4.88,4.07 -7.37,9.84 -7.47,17.27l-26.38 0c0,-9.47 2.29,-17.51 6.84,-24.14 4.54,-6.6 10.9,-11.69 19.1,-15.18 8.16,-3.48 17.66,-5.2 28.57,-5.2 10.65,0 19.91,1.56 27.86,4.72 7.91,3.11 14.06,7.66 18.49,13.6 4.38,5.95 6.6,13.12 6.6,21.52 0,6.19 -1.12,11.55 -3.24,16.06 -2.17,4.47 -5.21,8.53 -9.06,12.13 -3.9,3.61 -8.57,7.18 -14.01,10.7 -4.23,2.95 -7.51,5.7 -9.84,8.24 -2.34,2.54 -3.98,5.25 -4.92,8.07 -0.95,2.84 -1.6,6.11 -1.93,9.79l-23.89 0zm12.38 53.78c-5.21,0 -9.47,-1.68 -12.79,-5.04 -3.32,-3.36 -5.01,-7.51 -5.01,-12.37 0,-5.05 1.69,-9.15 5.01,-12.39 3.32,-3.19 7.58,-4.78 12.79,-4.78 5.21,0 9.46,1.59 12.83,4.78 3.35,3.24 5.04,7.34 5.04,12.39 0,4.86 -1.69,9.01 -5.04,12.37 -3.37,3.36 -7.62,5.04 -12.83,5.04z"/>
 </g>
</svg>
