<?xml version="1.0" encoding="UTF-8"?>
<!DOCTYPE svg PUBLIC "-//W3C//DTD SVG 1.1//EN" "http://www.w3.org/Graphics/SVG/1.1/DTD/svg11.dtd">
<!-- Creator: CorelDRAW 2021 (64 Bit) -->
<svg xmlns="http://www.w3.org/2000/svg" xml:space="preserve" width="2.7092mm" height="2.7092mm" version="1.1" style="shape-rendering:geometricPrecision; text-rendering:geometricPrecision; image-rendering:optimizeQuality; fill-rule:evenodd; clip-rule:evenodd"
viewBox="0 0 270.92 270.92"
 xmlns:xlink="http://www.w3.org/1999/xlink"
 xmlns:xodm="http://www.corel.com/coreldraw/odm/2003">
 <defs>
  <style type="text/css">
   <![CDATA[
    .str0 {stroke:gray;stroke-width:17.64;stroke-linecap:round;stroke-linejoin:round;stroke-miterlimit:22.9256}
    .fil0 {fill:none}
    .fil2 {fill:#C88C46}
    .fil1 {fill:red}
    .fil3 {fill:#99FFFF;fill-opacity:0.501961}
   ]]>
  </style>
 </defs>
 <g id="Camada_x0020_1">
  <metadata id="CorelCorpID_0Corel-Layer"/>
  <rect class="fil0" x="-0.01" y="-0" width="270.93" height="270.93"/>
  <path class="fil1" d="M76.17 237.08l-36.6 -63.4c-3.84,-6.47 -5.85,-13.86 -5.85,-21.38 0,-23.38 18.96,-42.33 42.34,-42.33 23.38,0 42.33,18.95 42.33,42.33 0,7.42 -1.95,14.71 -5.65,21.14l-36.57 63.64zm-0.11 -67.85c9.35,0 16.93,-7.58 16.93,-16.93 0,-9.35 -7.58,-16.93 -16.93,-16.93 -9.35,0 -16.93,7.58 -16.93,16.93 0,9.35 7.58,16.93 16.93,16.93z"/>
  <path class="fil2" d="M236.34 222.23l-34.31 -34.32c-6.6,-6.58 -6.6,-17.36 0,-23.94l0.01 -0.03c4.39,-4.39 4.32,-11.64 0.02,-15.94l-11.19 -11.18 -15.97 15.96 11.19 11.19c4.39,4.39 11.53,4.39 15.94,0 6.58,-6.6 17.39,-6.56 23.94,0l34.32 34.31c6.55,6.56 6.59,17.36 0,23.95 -6.59,6.59 -17.38,6.57 -23.95,0z"/>
  <path class="fil3" d="M90.56 138.06c24.8,24.8 65,24.8 89.8,0 24.8,-24.8 24.8,-65 0,-89.8 -24.8,-24.8 -65,-24.8 -89.8,0 -24.8,24.8 -24.8,65 0,89.8z"/>
  <circle class="fil0 str0" transform="matrix(0.530372 0.530372 -0.530372 0.530372 135.46 93.16)" r="84.66"/>
 </g>
</svg>
