<?xml version="1.0" encoding="UTF-8"?>
<!DOCTYPE svg PUBLIC "-//W3C//DTD SVG 1.1//EN" "http://www.w3.org/Graphics/SVG/1.1/DTD/svg11.dtd">
<!-- Creator: CorelDRAW 2021 (64 Bit) -->
<svg xmlns="http://www.w3.org/2000/svg" xml:space="preserve" width="2.7092mm" height="2.7092mm" version="1.1" style="shape-rendering:geometricPrecision; text-rendering:geometricPrecision; image-rendering:optimizeQuality; fill-rule:evenodd; clip-rule:evenodd"
viewBox="0 0 270.92 270.92"
 xmlns:xlink="http://www.w3.org/1999/xlink"
 xmlns:xodm="http://www.corel.com/coreldraw/odm/2003">
 <defs>
  <style type="text/css">
   <![CDATA[
    .fil0 {fill:none}
    .fil2 {fill:#333333}
    .fil4 {fill:#4D4D4D}
    .fil3 {fill:url(#id0)}
    .fil1 {fill:url(#id1)}
   ]]>
  </style>
  <linearGradient id="id0" gradientUnits="userSpaceOnUse" x1="135.46" y1="239.17" x2="135.46" y2="120.62">
   <stop offset="0" style="stop-opacity:1; stop-color:#003399"/>
   <stop offset="0.431373" style="stop-opacity:1; stop-color:#6699FF"/>
   <stop offset="0.709804" style="stop-opacity:1; stop-color:#FEFEFE"/>
   <stop offset="0.870588" style="stop-opacity:1; stop-color:#7F99CC"/>
   <stop offset="1" style="stop-opacity:1; stop-color:#003399"/>
  </linearGradient>
  <radialGradient id="id1" gradientUnits="userSpaceOnUse" gradientTransform="matrix(1.0001 -0 -0 1.0002 0 0)" cx="134.19" cy="96.97" r="63.48" fx="134.19" fy="96.97">
   <stop offset="0" style="stop-opacity:1; stop-color:#003399"/>
   <stop offset="0.631373" style="stop-opacity:1; stop-color:#003399"/>
   <stop offset="0.811765" style="stop-opacity:1; stop-color:#FEFEFE"/>
   <stop offset="1" style="stop-opacity:1; stop-color:#003399"/>
  </radialGradient>
 </defs>
 <g id="Camada_x0020_1">
  <metadata id="CorelCorpID_0Corel-Layer"/>
  <rect class="fil0" x="-0.01" width="270.93" height="270.92"/>
  <g id="_2767730645200">
   <g>
    <path class="fil1" d="M71.98 129.08l0 -33.84c0,-35.07 28.42,-63.49 63.48,-63.49 35.06,0 63.48,28.48 63.48,63.49l0 33.84 -29.58 0 0 -33.84c0,-21.07 -12.84,-33.91 -33.9,-33.91 -21.06,0 -33.9,12.94 -33.9,33.91l0 33.84 -29.58 0z"/>
    <path id="_1" class="fil2" d="M71.98 129.08l0 -33.84c0,-35.07 28.42,-63.49 63.48,-63.49 35.06,0 63.48,28.48 63.48,63.49l0 33.84 -29.58 0 0 -33.84c0,-21.07 -12.84,-33.91 -33.9,-33.91 -21.06,0 -33.9,12.94 -33.9,33.91l0 33.84 -29.58 0zm0.01 -33.84l0 33.83 29.56 0 0 -33.83c0,-10.5 3.23,-19 9.07,-24.85 5.83,-5.83 14.32,-9.07 24.84,-9.07 10.53,0 19.03,3.22 24.86,9.05 5.83,5.84 9.05,14.34 9.05,24.87l0 33.83 29.56 0 0 -33.83c0,-17.5 -7.12,-33.39 -18.61,-44.88 -11.47,-11.48 -27.35,-18.6 -44.86,-18.6 -17.52,0 -33.4,7.12 -44.88,18.59 -11.48,11.48 -18.59,27.37 -18.59,44.89z"/>
   </g>
   <g>
    <path class="fil3" d="M63.48 120.62l143.96 0c6.98,0 12.69,5.7 12.69,12.68l0 93.19c0,6.98 -5.71,12.68 -12.69,12.68l-143.96 0c-6.98,0 -12.69,-5.7 -12.69,-12.68l0 -93.19c0,-6.98 5.71,-12.68 12.69,-12.68z"/>
    <path id="_1_0" class="fil2" d="M63.48 120.62l143.96 0c6.98,0 12.69,5.7 12.69,12.68l0 93.19c0,6.98 -5.71,12.68 -12.69,12.68l-143.96 0c-6.98,0 -12.69,-5.7 -12.69,-12.68l0 -93.19c0,-6.98 5.71,-12.68 12.69,-12.68zm143.96 0.01l-143.96 0c-3.48,0 -6.66,1.44 -8.95,3.72 -2.29,2.29 -3.73,5.47 -3.73,8.95l0 93.19c0,3.48 1.44,6.66 3.73,8.95 2.29,2.28 5.47,3.72 8.95,3.72l143.96 0c3.48,0 6.66,-1.44 8.95,-3.72 2.29,-2.29 3.73,-5.47 3.73,-8.95l0 -93.19c0,-3.48 -1.44,-6.66 -3.73,-8.95 -2.29,-2.28 -5.47,-3.72 -8.95,-3.72z"/>
   </g>
   <g>
    <path class="fil4" d="M120.24 163.8l0.04 0c0,-8.42 6.8,-15.24 15.2,-15.24 8.4,0 15.24,6.82 15.24,15.24l0 32.17c0,8.42 -6.82,15.22 -15.24,15.22 -8.4,0 -15.2,-6.8 -15.2,-15.22l-0.04 0 0 -32.17z"/>
    <path id="_1_1" class="fil2" d="M120.24 163.8l0.04 0c0,-8.42 6.8,-15.24 15.2,-15.24 8.4,0 15.24,6.82 15.24,15.24l0 32.17c0,8.42 -6.82,15.22 -15.24,15.22 -8.4,0 -15.2,-6.8 -15.2,-15.22l-0.04 0 0 -32.17zm0.04 0.01l-0.03 0 0 32.15 0.03 0c0,0 0.01,0.01 0.01,0.01 0,4.2 1.71,8.01 4.45,10.76 2.74,2.74 6.55,4.45 10.74,4.45 4.2,0 8.02,-1.71 10.77,-4.46 2.75,-2.74 4.46,-6.55 4.46,-10.75l0 -32.17c0,-4.2 -1.72,-8.02 -4.47,-10.76 -2.75,-2.75 -6.57,-4.47 -10.76,-4.47 -4.19,0 -8,1.71 -10.74,4.46 -2.74,2.75 -4.45,6.57 -4.45,10.77 0,0 -0.01,0.01 -0.01,0.01z"/>
   </g>
  </g>
 </g>
</svg>
