<?xml version="1.0" encoding="UTF-8"?>
<!DOCTYPE svg PUBLIC "-//W3C//DTD SVG 1.1//EN" "http://www.w3.org/Graphics/SVG/1.1/DTD/svg11.dtd">
<!-- Creator: CorelDRAW 2021 (64 Bit) -->
<svg xmlns="http://www.w3.org/2000/svg" xml:space="preserve" width="2.7092mm" height="2.7092mm" version="1.1" style="shape-rendering:geometricPrecision; text-rendering:geometricPrecision; image-rendering:optimizeQuality; fill-rule:evenodd; clip-rule:evenodd"
viewBox="0 0 270.92 270.92"
 xmlns:xlink="http://www.w3.org/1999/xlink"
 xmlns:xodm="http://www.corel.com/coreldraw/odm/2003">
 <defs>
  <style type="text/css">
   <![CDATA[
    .str0 {stroke:#999999;stroke-width:17.64;stroke-linecap:round;stroke-linejoin:round;stroke-miterlimit:22.9256}
    .fil0 {fill:none}
    .fil1 {fill:#4682C8}
   ]]>
  </style>
 </defs>
 <g id="Camada_x0020_1">
  <metadata id="CorelCorpID_0Corel-Layer"/>
  <rect class="fil0" x="-0.01" y="-0" width="270.93" height="270.93"/>
  <g>
   <path class="fil1" d="M211.67 161.56l-16.21 0 -17.64 0 0 -17.64 0 -76.19c0,-11.5 -4.66,-21.91 -12.19,-29.44 -7.53,-7.53 -17.94,-12.19 -29.44,-12.19 -11.5,0 -21.91,4.66 -29.44,12.19 -7.53,7.53 -12.19,17.94 -12.19,29.44l0 76.19 0 17.64 -17.64 0 -17.67 0c-11.52,0 -21.95,4.66 -29.47,12.16l0.03 0.03c-7.53,7.53 -12.19,17.95 -12.19,29.44 0,11.5 4.66,21.91 12.19,29.44 7.53,7.53 17.94,12.19 29.44,12.19l152.42 0c11.5,0 21.91,-4.66 29.44,-12.19 7.53,-7.53 12.19,-17.94 12.19,-29.44 0,-11.49 -4.66,-21.91 -12.19,-29.44l0.03 -0.03c-7.52,-7.5 -17.95,-12.16 -29.47,-12.16zm-16.21 -17.64l16.21 0c32.73,0 59.27,26.54 59.27,59.27 0,32.73 -26.54,59.27 -59.27,59.27l-152.42 0c-32.73,0 -59.27,-26.54 -59.27,-59.27 0,-32.73 26.54,-59.27 59.27,-59.27l17.67 0 0 -76.19c0,-32.73 26.54,-59.27 59.27,-59.27 32.73,0 59.27,26.54 59.27,59.27l0 76.19z"/>
  </g>
  <path class="fil0 str0" d="M55.02 203.2l160.88 0m-80.44 -135.47l0 135.47"/>
 </g>
</svg>
