<?xml version="1.0" encoding="UTF-8"?>
<!DOCTYPE svg PUBLIC "-//W3C//DTD SVG 1.1//EN" "http://www.w3.org/Graphics/SVG/1.1/DTD/svg11.dtd">
<!-- Creator: CorelDRAW 2021 (64 Bit) -->
<svg xmlns="http://www.w3.org/2000/svg" xml:space="preserve" width="2.7092mm" height="2.7092mm" version="1.1" style="shape-rendering:geometricPrecision; text-rendering:geometricPrecision; image-rendering:optimizeQuality; fill-rule:evenodd; clip-rule:evenodd"
viewBox="0 0 270.92 270.92"
 xmlns:xlink="http://www.w3.org/1999/xlink"
 xmlns:xodm="http://www.corel.com/coreldraw/odm/2003">
 <defs>
  <style type="text/css">
   <![CDATA[
    .fil0 {fill:none}
    .fil3 {fill:#FF9933}
    .fil1 {fill:#4682C8;fill-rule:nonzero}
    .fil2 {fill:#999999;fill-rule:nonzero}
   ]]>
  </style>
 </defs>
 <g id="Camada_x0020_1">
  <metadata id="CorelCorpID_0Corel-Layer"/>
  <rect class="fil0" x="-0.01" y="-0" width="270.93" height="270.93"/>
  <g>
   <path class="fil1" d="M107.92 221.52l156.62 0.02 0 14.1 -156.62 -0.02 0 -14.1zm-100.18 -86.06l14.12 0 0 0 0.11 4.43 0.33 4.38 0.54 4.31 0.76 4.24 0.96 4.15 1.17 4.09 1.35 4 1.54 3.9 1.72 3.81 1.9 3.71 2.07 3.6 2.25 3.5 2.39 3.38 2.56 3.25 2.7 3.11 2.86 3 2.99 2.85 3.12 2.71 3.25 2.55 3.38 2.4 3.49 2.24 3.61 2.07 3.7 1.9 3.81 1.72 3.92 1.54 3.99 1.35 4.07 1.17 4.17 0.95 4.23 0.76 4.31 0.54 4.38 0.33 4.43 0.12 0 14.1 -5.15 -0.12 -5.08 -0.39 -5.01 -0.64 -4.93 -0.88 -4.85 -1.11 -4.77 -1.35 -4.65 -1.57 -4.54 -1.8 -4.45 -2 -4.32 -2.22 -4.19 -2.41 -4.07 -2.6 -3.92 -2.8 -3.79 -2.97 -3.64 -3.15 -3.47 -3.31 -3.32 -3.48 -3.14 -3.63 -2.98 -3.79 -2.79 -3.92 -2.61 -4.06 -2.41 -4.2 -2.22 -4.33 -2 -4.43 -1.8 -4.56 -1.57 -4.66 -1.35 -4.75 -1.12 -4.85 -0.88 -4.94 -0.64 -5.01 -0.39 -5.08 -0.13 -5.15 0 0zm100.2 -100.2l0 14.12 0 0 -4.43 0.11 -4.38 0.33 -4.31 0.54 -4.24 0.76 -4.15 0.96 -4.09 1.17 -4 1.35 -3.91 1.54 -3.81 1.72 -3.7 1.9 -3.6 2.07 -3.5 2.25 -3.38 2.39 -3.25 2.56 -3.13 2.71 -3 2.85 -2.84 2.99 -2.71 3.12 -2.55 3.25 -2.4 3.38 -2.24 3.5 -2.08 3.6 -1.89 3.71 -1.73 3.82 -1.54 3.91 -1.35 3.99 -1.17 4.08 -0.96 4.16 -0.76 4.24 -0.54 4.31 -0.33 4.38 -0.11 4.43 -14.12 0 0.13 -5.15 0.39 -5.08 0.64 -5.01 0.88 -4.94 1.12 -4.86 1.35 -4.76 1.57 -4.65 1.8 -4.55 2.01 -4.44 2.21 -4.33 2.42 -4.2 2.6 -4.06 2.8 -3.92 2.97 -3.79 3.15 -3.64 3.32 -3.47 3.48 -3.31 3.63 -3.15 3.79 -2.98 3.92 -2.79 4.06 -2.61 4.2 -2.41 4.32 -2.22 4.45 -2 4.55 -1.8 4.66 -1.57 4.75 -1.35 4.85 -1.12 4.94 -0.88 5.01 -0.64 5.08 -0.39 5.15 -0.13 0 0zm84.65 14.12l-84.65 0 0 -14.12 84.65 0 7.06 7.06 -7.06 7.06zm0 -14.12l7.06 0 0 7.06 -7.06 -7.06zm-7.06 100.19l0 -93.13 14.12 0 0 93.13 -14.12 0z"/>
  </g>
  <g>
   <path class="fil2" d="M107.93 184.23l156.63 0.05 0 14.1 -156.63 -0.05 0 -14.11 0 0.01zm-62.91 -48.8l14.12 0 0 0 0.06 2.51 0.19 2.49 0.31 2.45 0.42 2.39 0.55 2.36 0.66 2.32 0.76 2.26 0.88 2.21 0.98 2.17 1.07 2.1 1.17 2.04 1.28 1.98 1.35 1.92 1.44 1.83 1.54 1.77 1.63 1.7 1.7 1.63 1.77 1.54 1.83 1.44 1.92 1.35 1.98 1.28 2.04 1.17 2.1 1.07 2.17 0.98 2.21 0.88 2.26 0.76 2.32 0.66 2.36 0.55 2.39 0.42 2.45 0.31 2.49 0.19 2.51 0.06 0 14.12 -3.23 -0.08 -3.19 -0.25 -3.15 -0.39 -3.11 -0.56 -3.04 -0.71 -2.98 -0.84 -2.94 -1 -2.85 -1.12 -2.79 -1.26 -2.7 -1.39 -2.64 -1.51 -2.56 -1.64 -2.46 -1.75 -2.39 -1.88 -2.27 -1.98 -2.18 -2.07 -2.07 -2.18 -1.98 -2.27 -1.88 -2.39 -1.75 -2.46 -1.64 -2.56 -1.51 -2.64 -1.39 -2.7 -1.26 -2.79 -1.12 -2.85 -1 -2.94 -0.84 -2.98 -0.71 -3.04 -0.56 -3.11 -0.39 -3.15 -0.25 -3.19 -0.08 -3.23 0 0zm62.91 -62.93l0 14.12 0 0 -2.51 0.06 -2.49 0.19 -2.45 0.31 -2.39 0.42 -2.36 0.55 -2.32 0.66 -2.26 0.76 -2.21 0.88 -2.17 0.98 -2.09 1.07 -2.05 1.18 -1.98 1.27 -1.91 1.36 -1.85 1.45 -1.76 1.53 -1.7 1.62 -1.62 1.7 -1.54 1.77 -1.45 1.84 -1.35 1.92 -1.28 1.98 -1.17 2.04 -1.07 2.11 -0.98 2.16 -0.88 2.22 -0.76 2.25 -0.66 2.33 -0.55 2.36 -0.42 2.39 -0.31 2.45 -0.19 2.48 -0.06 2.52 -14.12 0 0.08 -3.24 0.25 -3.18 0.39 -3.15 0.56 -3.11 0.71 -3.04 0.84 -2.99 1 -2.93 1.12 -2.86 1.26 -2.78 1.39 -2.71 1.51 -2.64 1.64 -2.56 1.75 -2.46 1.87 -2.38 1.98 -2.29 2.08 -2.18 2.18 -2.08 2.28 -1.97 2.37 -1.87 2.47 -1.76 2.56 -1.63 2.63 -1.52 2.71 -1.39 2.79 -1.26 2.85 -1.12 2.94 -1 2.98 -0.84 3.04 -0.71 3.11 -0.56 3.15 -0.39 3.19 -0.25 3.23 -0.08 0 0zm47.43 14.12l-47.43 0 0 -14.12 47.43 0 7.06 7.06 -7.06 7.06zm0 -14.12l7.06 0 0 7.06 -7.06 -7.06zm-7.06 62.95l0 -55.89 14.12 0 0 55.89 -14.12 0z"/>
  </g>
  <polygon id="_1_0" class="fil3" points="215.81,67.76 258.14,67.76 258.14,110.09 215.81,110.09 "/>
 </g>
</svg>
