<?xml version="1.0" encoding="UTF-8"?>
<!DOCTYPE svg PUBLIC "-//W3C//DTD SVG 1.1//EN" "http://www.w3.org/Graphics/SVG/1.1/DTD/svg11.dtd">
<!-- Creator: CorelDRAW 2021 (64 Bit) -->
<svg xmlns="http://www.w3.org/2000/svg" xml:space="preserve" width="2.7092mm" height="2.7092mm" version="1.1" style="shape-rendering:geometricPrecision; text-rendering:geometricPrecision; image-rendering:optimizeQuality; fill-rule:evenodd; clip-rule:evenodd"
viewBox="0 0 270.92 270.92"
 xmlns:xlink="http://www.w3.org/1999/xlink"
 xmlns:xodm="http://www.corel.com/coreldraw/odm/2003">
 <defs>
  <style type="text/css">
   <![CDATA[
    .fil0 {fill:none}
    .fil3 {fill:#009933}
    .fil2 {fill:gray}
    .fil1 {fill:white}
   ]]>
  </style>
 </defs>
 <g id="Camada_x0020_1">
  <metadata id="CorelCorpID_0Corel-Layer"/>
  <rect class="fil0" x="-0.01" width="270.93" height="270.92"/>
  <g>
   <path class="fil1" d="M46.95 29.62l134.71 0c21.17,0 38.48,17.32 38.48,38.48l0 134.71c0,21.17 -17.31,38.49 -38.48,38.49l-134.71 0c-21.17,0 -38.48,-17.32 -38.48,-38.49l0 -134.71c0,-21.16 17.31,-38.48 38.48,-38.48z"/>
   <path id="_1" class="fil2" d="M46.95 29.62l134.71 0c21.17,0 38.48,17.32 38.48,38.48l0 134.71c0,21.17 -17.31,38.49 -38.48,38.49l-134.71 0c-21.17,0 -38.48,-17.32 -38.48,-38.49l0 -134.71c0,-21.16 17.31,-38.48 38.48,-38.48zm134.71 17.64l-134.71 0c-5.74,0 -10.97,2.34 -14.74,6.1 -3.76,3.77 -6.1,9 -6.1,14.74l0 134.71c0,5.75 2.34,10.98 6.1,14.75 3.77,3.76 9,6.1 14.74,6.1l134.71 0c5.74,0 10.97,-2.34 14.74,-6.1 3.76,-3.77 6.1,-9 6.1,-14.75l0 -134.71c0,-5.74 -2.34,-10.97 -6.1,-14.74 -3.77,-3.76 -9,-6.1 -14.74,-6.1z"/>
  </g>
  <polygon class="fil3" points="72.31,134.74 99.24,107.8 135.15,143.71 230.91,47.96 257.85,74.89 135.15,197.59 "/>
 </g>
</svg>
