<?xml version="1.0" encoding="UTF-8"?>
<!DOCTYPE svg PUBLIC "-//W3C//DTD SVG 1.1//EN" "http://www.w3.org/Graphics/SVG/1.1/DTD/svg11.dtd">
<!-- Creator: CorelDRAW 2021 (64 Bit) -->
<svg xmlns="http://www.w3.org/2000/svg" xml:space="preserve" width="2.7092mm" height="2.7092mm" version="1.1" style="shape-rendering:geometricPrecision; text-rendering:geometricPrecision; image-rendering:optimizeQuality; fill-rule:evenodd; clip-rule:evenodd"
viewBox="0 0 270.92 270.92"
 xmlns:xlink="http://www.w3.org/1999/xlink"
 xmlns:xodm="http://www.corel.com/coreldraw/odm/2003">
 <defs>
  <style type="text/css">
   <![CDATA[
    .fil0 {fill:none}
    .fil3 {fill:#009933}
    .fil1 {fill:#666666}
    .fil2 {fill:white}
   ]]>
  </style>
 </defs>
 <g id="Camada_x0020_1">
  <metadata id="CorelCorpID_0Corel-Layer"/>
  <rect class="fil0" x="-0.01" y="-0" width="270.93" height="270.93"/>
  <g>
   <path class="fil1" d="M262.46 135.46c0,70.14 -56.86,127 -127,127 -70.14,0 -127,-56.86 -127,-127 0,-70.14 56.86,-127 127,-127 70.14,0 127,56.86 127,127zm-49.17 -77.9c-19.86,-19.87 -47.39,-32.17 -77.83,-32.17 -30.44,0 -57.97,12.3 -77.83,32.17l-0.07 0.07c-19.87,19.86 -32.17,47.39 -32.17,77.83 0,30.44 12.3,57.97 32.17,77.83l0.07 0.07c19.86,19.87 47.39,32.17 77.83,32.17 30.44,0 57.97,-12.3 77.83,-32.17l0.07 -0.07c19.87,-19.86 32.17,-47.39 32.17,-77.83 0,-30.44 -12.3,-57.97 -32.17,-77.83l-0.07 -0.07z"/>
  </g>
  <g>
   <polygon class="fil2" points="165.1,165.1 105.82,165.1 105.82,105.82 165.1,105.82 "/>
   <path id="_1" class="fil3" d="M165.1 165.1l-59.28 0 0 -59.28 59.28 0 0 59.28zm-46.93 -12.35l34.58 0 0 -34.58 -34.58 0 0 34.58z"/>
  </g>
 </g>
</svg>
