<?xml version="1.0" encoding="UTF-8"?>
<!DOCTYPE svg PUBLIC "-//W3C//DTD SVG 1.1//EN" "http://www.w3.org/Graphics/SVG/1.1/DTD/svg11.dtd">
<!-- Creator: CorelDRAW 2021 (64 Bit) -->
<svg xmlns="http://www.w3.org/2000/svg" xml:space="preserve" width="2.7092mm" height="2.7092mm" version="1.1" style="shape-rendering:geometricPrecision; text-rendering:geometricPrecision; image-rendering:optimizeQuality; fill-rule:evenodd; clip-rule:evenodd"
viewBox="0 0 270.92 270.92"
 xmlns:xlink="http://www.w3.org/1999/xlink"
 xmlns:xodm="http://www.corel.com/coreldraw/odm/2003">
 <defs>
  <style type="text/css">
   <![CDATA[
    .str0 {stroke:#666666;stroke-width:16.93;stroke-linecap:square;stroke-miterlimit:22.9256}
    .fil0 {fill:none}
    .fil2 {fill:#009933}
    .fil1 {fill:white}
   ]]>
  </style>
 </defs>
 <g id="Camada_x0020_1">
  <metadata id="CorelCorpID_0Corel-Layer"/>
  <rect class="fil0" x="0" y="-0" width="270.93" height="270.93"/>
  <polyline class="fil0 str0" points="25.39,219.16 56.16,82.53 214.75,188.36 245.52,51.76 "/>
  <g>
   <polygon class="fil1" points="270.92,59.26 211.65,59.26 211.65,-0.01 270.92,-0.01 "/>
   <path id="_1" class="fil2" d="M270.92 59.26l-59.27 0 0 -59.27 59.27 0 0 59.27zm-46.92 -12.35l34.57 0 0 -34.57 -34.57 0 0 34.57z"/>
  </g>
  <g>
   <polygon class="fil1" points="59.25,270.94 -0.02,270.94 -0.02,211.67 59.25,211.67 "/>
   <path id="_1_0" class="fil2" d="M59.25 270.94l-59.27 0 0 -59.27 59.27 0 0 59.27zm-46.92 -12.35l34.57 0 0 -34.57 -34.57 0 0 34.57z"/>
  </g>
 </g>
</svg>
