<?xml version="1.0" encoding="UTF-8"?>
<!DOCTYPE svg PUBLIC "-//W3C//DTD SVG 1.1//EN" "http://www.w3.org/Graphics/SVG/1.1/DTD/svg11.dtd">
<!-- Creator: CorelDRAW 2021 (64 Bit) -->
<svg xmlns="http://www.w3.org/2000/svg" xml:space="preserve" width="2.7092mm" height="2.7092mm" version="1.1" style="shape-rendering:geometricPrecision; text-rendering:geometricPrecision; image-rendering:optimizeQuality; fill-rule:evenodd; clip-rule:evenodd"
viewBox="0 0 270.92 270.92"
 xmlns:xlink="http://www.w3.org/1999/xlink"
 xmlns:xodm="http://www.corel.com/coreldraw/odm/2003">
 <defs>
  <style type="text/css">
   <![CDATA[
    .fil0 {fill:none}
    .fil3 {fill:#009933}
    .fil1 {fill:#666666}
    .fil2 {fill:white}
   ]]>
  </style>
 </defs>
 <g id="Camada_x0020_1">
  <metadata id="CorelCorpID_0Corel-Layer"/>
  <rect class="fil0" x="-0.01" y="-0" width="270.93" height="270.93"/>
  <g>
   <path class="fil1" d="M135.46 12.69c67.8,0 122.77,54.97 122.77,122.77 0,67.8 -54.97,122.77 -122.77,122.77 -67.8,0 -122.77,-54.97 -122.77,-122.77 0,-67.8 54.97,-122.77 122.77,-122.77zm74.84 47.93c-19.14,-19.14 -45.62,-31 -74.84,-31 -29.22,0 -55.7,11.86 -74.84,31 -19.14,19.14 -31,45.62 -31,74.84 0,29.22 11.86,55.7 31,74.84 19.14,19.14 45.62,31 74.84,31 29.22,0 55.7,-11.86 74.84,-31 19.14,-19.14 31,-45.62 31,-74.84 0,-29.22 -11.86,-55.7 -31,-74.84z"/>
  </g>
  <g>
   <polygon class="fil2" points="165.1,270.85 105.82,270.85 105.82,211.58 165.1,211.58 "/>
   <path id="_1" class="fil3" d="M165.1 270.85l-59.28 0 0 -59.27 59.28 0 0 59.27zm-46.93 -12.35l34.58 0 0 -34.57 -34.58 0 0 34.57z"/>
  </g>
  <g>
   <polygon class="fil2" points="270.85,165.1 211.58,165.1 211.58,105.82 270.85,105.82 "/>
   <path id="_1_0" class="fil3" d="M270.85 165.1l-59.27 0 0 -59.28 59.27 0 0 59.28zm-46.92 -12.35l34.57 0 0 -34.58 -34.57 0 0 34.58z"/>
  </g>
  <g>
   <polygon class="fil2" points="165.1,55.11 105.82,55.11 105.82,-4.16 165.1,-4.16 "/>
   <path id="_1_1" class="fil3" d="M165.1 55.11l-59.28 0 0 -59.27 59.28 0 0 59.27zm-46.93 -12.35l34.58 0 0 -34.57 -34.58 0 0 34.57z"/>
  </g>
  <g>
   <polygon class="fil2" points="59.34,165.1 0.07,165.1 0.07,105.82 59.34,105.82 "/>
   <path id="_1_2" class="fil3" d="M59.34 165.1l-59.27 0 0 -59.28 59.27 0 0 59.28zm-46.92 -12.35l34.57 0 0 -34.58 -34.57 0 0 34.58z"/>
  </g>
 </g>
</svg>
