<?xml version="1.0" encoding="UTF-8"?>
<!DOCTYPE svg PUBLIC "-//W3C//DTD SVG 1.1//EN" "http://www.w3.org/Graphics/SVG/1.1/DTD/svg11.dtd">
<!-- Creator: CorelDRAW 2021 (64 Bit) -->
<svg xmlns="http://www.w3.org/2000/svg" xml:space="preserve" width="2.7092mm" height="2.7092mm" version="1.1" style="shape-rendering:geometricPrecision; text-rendering:geometricPrecision; image-rendering:optimizeQuality; fill-rule:evenodd; clip-rule:evenodd"
viewBox="0 0 270.92 270.92"
 xmlns:xlink="http://www.w3.org/1999/xlink"
 xmlns:xodm="http://www.corel.com/coreldraw/odm/2003">
 <defs>
  <style type="text/css">
   <![CDATA[
    .fil0 {fill:none}
    .fil4 {fill:#009933}
    .fil1 {fill:#666666}
    .fil3 {fill:white}
    .fil2 {fill:#666666;fill-rule:nonzero}
   ]]>
  </style>
 </defs>
 <g id="Camada_x0020_1">
  <metadata id="CorelCorpID_0Corel-Layer"/>
  <rect class="fil0" x="-0.01" y="-0" width="270.93" height="270.93"/>
  <g>
   <path class="fil1" d="M109.8 67.75c-25.76,0 -49.06,10.41 -65.85,27.21l-0.07 0.07c-16.8,16.79 -27.21,40.09 -27.21,65.85 0,25.76 10.41,49.06 27.21,65.85l0.07 0.07c16.79,16.8 40.09,27.21 65.85,27.21 25.76,0 49.06,-10.41 65.85,-27.21l0.07 -0.07c16.8,-16.79 27.21,-40.09 27.21,-65.85 0,-25.76 -10.41,-49.06 -27.21,-65.85l-0.07 -0.07c-16.79,-16.8 -40.09,-27.21 -65.85,-27.21zm0 -16.93c-60.78,0 -110.06,49.28 -110.06,110.06 0,60.78 49.28,110.06 110.06,110.06 60.78,0 110.06,-49.28 110.06,-110.06 0,-60.78 -49.28,-110.06 -110.06,-110.06z"/>
  </g>
  <g>
   <polygon class="fil2" points="109.4,0.44 270.22,161.28 258.24,173.26 97.42,12.42 "/>
  </g>
  <g>
   <polygon class="fil3" points="154.31,116.63 213.58,116.63 213.58,57.36 154.31,57.36 "/>
   <path id="_1" class="fil4" d="M166.66 104.28l34.57 0 0 -34.57 -34.57 0 0 34.57zm-12.35 12.35l59.27 0 0 -59.27 -59.27 0 0 59.27z"/>
  </g>
 </g>
</svg>
