<?xml version="1.0" encoding="UTF-8"?>
<!DOCTYPE svg PUBLIC "-//W3C//DTD SVG 1.1//EN" "http://www.w3.org/Graphics/SVG/1.1/DTD/svg11.dtd">
<!-- Creator: CorelDRAW 2021 (64 Bit) -->
<svg xmlns="http://www.w3.org/2000/svg" xml:space="preserve" width="2.7092mm" height="2.7092mm" version="1.1" style="shape-rendering:geometricPrecision; text-rendering:geometricPrecision; image-rendering:optimizeQuality; fill-rule:evenodd; clip-rule:evenodd"
viewBox="0 0 270.92 270.92"
 xmlns:xlink="http://www.w3.org/1999/xlink"
 xmlns:xodm="http://www.corel.com/coreldraw/odm/2003">
 <defs>
  <style type="text/css">
   <![CDATA[
    .fil0 {fill:none}
    .fil1 {fill:#4682C8}
    .fil2 {fill:#FF9933}
   ]]>
  </style>
 </defs>
 <g id="Camada_x0020_1">
  <metadata id="CorelCorpID_0Corel-Layer"/>
  <rect class="fil0" x="-0.01" y="-0.01" width="270.95" height="270.95"/>
  <g>
   <path class="fil1" d="M135.46 11.28l63.07 45.83 63.08 45.82 -24.09 74.15 -24.1 74.15 -77.96 0 -77.96 0 -24.1 -74.15 -24.09 -74.15 63.08 -45.82 63.07 -45.83zm53.15 59.52l-53.15 -38.62 -53.15 38.62 -53.13 38.6 20.29 62.46 20.29 62.44 65.7 0 65.7 0 20.29 -62.44 20.29 -62.46 -53.13 -38.6z"/>
  </g>
  <polygon id="_1_0" class="fil2" points="114.3,122.75 156.63,122.75 156.63,165.08 114.3,165.08 "/>
  <polygon id="_1_0_0" class="fil2" points="42.39,220.04 84.72,220.04 84.72,262.37 42.39,262.37 "/>
 </g>
</svg>
