<?xml version="1.0" encoding="UTF-8" standalone="no"?>
<!-- Creator: CorelDRAW 2021 (64 Bit) -->

<svg
   xml:space="preserve"
   width="2.7092mm"
   height="2.7092mm"
   version="1.1"
   style="shape-rendering:geometricPrecision; text-rendering:geometricPrecision; image-rendering:optimizeQuality; fill-rule:evenodd; clip-rule:evenodd"
   viewBox="0 0 270.92 270.92"
   id="svg24"
   sodipodi:docname="qad.svg"
   inkscape:version="1.3 (0e150ed6c4, 2023-07-21)"
   xmlns:inkscape="http://www.inkscape.org/namespaces/inkscape"
   xmlns:sodipodi="http://sodipodi.sourceforge.net/DTD/sodipodi-0.dtd"
   xmlns:xlink="http://www.w3.org/1999/xlink"
   xmlns="http://www.w3.org/2000/svg"
   xmlns:svg="http://www.w3.org/2000/svg"><sodipodi:namedview
   id="namedview24"
   pagecolor="#ffffff"
   bordercolor="#000000"
   borderopacity="0.25"
   inkscape:showpageshadow="2"
   inkscape:pageopacity="0.0"
   inkscape:pagecheckerboard="0"
   inkscape:deskcolor="#d1d1d1"
   inkscape:document-units="mm"
   showgrid="false"
   inkscape:zoom="123.74978"
   inkscape:cx="5.5111209"
   inkscape:cy="4.8808167"
   inkscape:window-width="3840"
   inkscape:window-height="2050"
   inkscape:window-x="-12"
   inkscape:window-y="-12"
   inkscape:window-maximized="1"
   inkscape:current-layer="Camada_x0020_1" />&#10; <defs
   id="defs19"><radialGradient
   id="radialGradient29"
   gradientUnits="userSpaceOnUse"
   gradientTransform="matrix(-0.0220695 1.17607 -1.25796 8.16764E-06 229 -97)"
   cx="140.43"
   cy="68.33"
   r="4897.41"
   fx="140.43"
   fy="68.33">&#10;   <stop
   offset="0"
   style="stop-opacity:1; stop-color:white"
   id="stop24" />&#10;   <stop
   offset="0.18606356"
   style="stop-opacity:1; stop-color:white"
   id="stop25" />&#10;   <stop
   offset="0.501961"
   style="stop-opacity:1; stop-color:#CCCCCC"
   id="stop26" />&#10;   <stop
   offset="0.74902"
   style="stop-opacity:1; stop-color:#A6A6A6"
   id="stop27" />&#10;   <stop
   offset="0.886275"
   style="stop-opacity:1; stop-color:#939393"
   id="stop28" />&#10;   <stop
   offset="1"
   style="stop-opacity:1; stop-color:gray"
   id="stop29" />&#10;  </radialGradient>&#10;  <style
   type="text/css"
   id="style1">&#10;   <![CDATA[
    .fil3 {fill:url(#id0)}
    .fil1 {fill:url(#id1)}
    .fil0 {fill:url(#id2)}
    .fil2 {fill:url(#id3)}
    .fil4 {fill:url(#id4)}
    .fil5 {fill:url(#id5)}
   ]]>&#10;  </style>&#10;  <linearGradient
   id="id0"
   gradientUnits="userSpaceOnUse"
   x1="173.22"
   y1="270.35"
   x2="173.22"
   y2="245.42">&#10;   <stop
   offset="0"
   style="stop-opacity:1; stop-color:#284F00"
   id="stop1" />&#10;   <stop
   offset="1"
   style="stop-opacity:1; stop-color:#4A9400"
   id="stop2" />&#10;  </linearGradient>&#10;  <linearGradient
   id="id1"
   gradientUnits="userSpaceOnUse"
   x1="191.18"
   y1="197.11"
   x2="190.88"
   y2="-1.96">&#10;   <stop
   offset="0"
   style="stop-opacity:1; stop-color:#284F00"
   id="stop3" />&#10;   <stop
   offset="1"
   style="stop-opacity:1; stop-color:#7ACF25"
   id="stop4" />&#10;  </linearGradient>&#10;  <linearGradient
   id="id2"
   gradientUnits="userSpaceOnUse"
   x1="167.7"
   y1="148.97"
   x2="167.7"
   y2="139.64">&#10;   <stop
   offset="0"
   style="stop-opacity:1; stop-color:#366B00"
   id="stop5" />&#10;   <stop
   offset="1"
   style="stop-opacity:1; stop-color:#8DEB2F"
   id="stop6" />&#10;  </linearGradient>&#10;  <linearGradient
   id="id3"
   gradientUnits="userSpaceOnUse"
   x1="188.14"
   y1="197.11"
   x2="187.63"
   y2="259.17">&#10;   <stop
   offset="0"
   style="stop-opacity:1; stop-color:#337500"
   id="stop7" />&#10;   <stop
   offset="0.258824"
   style="stop-opacity:1; stop-color:#337500"
   id="stop8" />&#10;   <stop
   offset="0.509804"
   style="stop-opacity:1; stop-color:#79C93C"
   id="stop9" />&#10;   <stop
   offset="0.690196"
   style="stop-opacity:1; stop-color:#337500"
   id="stop10" />&#10;   <stop
   offset="0.858824"
   style="stop-opacity:1; stop-color:#337500"
   id="stop11" />&#10;   <stop
   offset="0.929412"
   style="stop-opacity:1; stop-color:#91E055"
   id="stop12" />&#10;   <stop
   offset="1"
   style="stop-opacity:1; stop-color:#2A6100"
   id="stop13" />&#10;  </linearGradient>&#10;  <radialGradient
   id="id4"
   gradientUnits="userSpaceOnUse"
   gradientTransform="matrix(-0.0220695 1.17607 -1.25796 8.16764E-06 229 -97)"
   cx="140.43"
   cy="68.33"
   r="4897.41"
   fx="140.43"
   fy="68.33">&#10;   <stop
   offset="0"
   style="stop-opacity:1; stop-color:white"
   id="stop14" />&#10;   <stop
   offset="0.16680005"
   style="stop-opacity:1; stop-color:white"
   id="stop15" />&#10;   <stop
   offset="0.501961"
   style="stop-opacity:1; stop-color:#CCCCCC"
   id="stop16" />&#10;   <stop
   offset="0.74902"
   style="stop-opacity:1; stop-color:#A6A6A6"
   id="stop17" />&#10;   <stop
   offset="0.886275"
   style="stop-opacity:1; stop-color:#939393"
   id="stop18" />&#10;   <stop
   offset="1"
   style="stop-opacity:1; stop-color:gray"
   id="stop19" />&#10;  </radialGradient>&#10;  <radialGradient
   id="id5"
   gradientUnits="userSpaceOnUse"
   gradientTransform="matrix(-8.8953051e-5,0.03526144,-0.04198592,-1.059543e-4,119.73641,55.898969)"
   xlink:href="#radialGradient29"
   cx="180.73509"
   cy="22.191175"
   r="4920.72"
   fx="180.73509"
   fy="22.191175">&#10;  </radialGradient>&#10; <radialGradient
   inkscape:collect="always"
   xlink:href="#id4"
   id="radialGradient24"
   gradientUnits="userSpaceOnUse"
   gradientTransform="matrix(1.7823777e-4,0.03200058,-0.05127126,2.8663987e-4,143.42271,63.642633)"
   cx="-116.85006"
   cy="446.91263"
   fx="-116.85006"
   fy="446.91263"
   r="4897.41" /></defs>&#10; <g
   id="Camada_x0020_1"
   inkscape:label="Camada 1">&#10;  <metadata
   id="CorelCorpID_0Corel-Layer" />&#10;  <g
   id="_2248440293248">&#10;   <path
   class="fil0"
   d="M169.54 142.11c-3.02,-3.08 -7.95,-3.15 -11.05,-0.15 -2.46,2.38 -4.96,4.72 -7.5,7.01l25.19 0.01c-2.2,-2.31 -4.41,-4.6 -6.64,-6.87z"
   id="path19" />&#10;   <path
   class="fil1"
   d="M219.19 135.46c0,-18.37 -1.74,-36.69 -5.19,-54.73 -2.69,-14.03 -7.08,-27.68 -13.08,-40.65 -5.55,-12.01 -13.49,-22.75 -23.35,-31.57 -5.71,-5.11 -13.1,-7.94 -20.76,-7.94 -7.66,0 -15.06,2.83 -20.76,7.94 -0.2,0.18 -0.4,0.35 -0.59,0.53 9.58,8.72 17.32,19.28 22.76,31.04 6,12.97 10.39,26.62 13.08,40.65 3.45,18.04 5.19,36.36 5.19,54.73 0,4.51 -0.1,9.01 -0.31,13.52l-25.19 -0.01c-2.09,1.88 -4.21,3.73 -6.35,5.54 -1.91,1.63 -3.07,3.96 -3.22,6.46 -0.14,2.51 0.74,4.95 2.45,6.78 8.93,9.54 17.58,19.33 25.96,29.36l42.7 0c0.53,-2.3 1.02,-4.6 1.47,-6.92 3.45,-18.04 5.19,-36.36 5.19,-54.73z"
   id="path20" />&#10;   <path
   class="fil2"
   d="M223.42 228.34c-1.72,-10.98 -5.41,-21.56 -10.89,-31.23l-42.7 0c-2.72,11.61 -6.6,22.91 -11.61,33.73 -2.41,5.21 -5.27,10.19 -8.56,14.9l42.7 0c-0.24,2.62 -0.29,5.26 -0.15,7.9 0.03,0.75 0.67,1.33 1.42,1.3 1.21,-0.05 2.38,-0.42 3.4,-1.06 6.95,-4.35 13.56,-9.22 19.78,-14.57 2.46,-2.1 4.5,-4.64 6.02,-7.49 0.56,-1.07 0.77,-2.29 0.59,-3.48z"
   id="path21" />&#10;   <path
   class="fil3"
   d="M192.36 245.74l-42.7 0c-4.12,5.89 -8.88,11.3 -14.2,16.14 0.19,0.18 0.39,0.35 0.59,0.53 5.71,5.11 13.1,7.94 20.76,7.94 7.66,0 15.06,-2.83 20.76,-7.94 5.56,-4.97 10.52,-10.57 14.79,-16.67z"
   id="path22" />&#10;   <path
   class="fil4"
   d="M163.08 1.21c5.39,1.11 10.39,3.63 14.49,7.3 9.85,8.82 17.8,19.57 23.35,31.57 6,12.97 10.39,26.62 13.08,40.65 3.45,18.04 5.19,36.36 5.19,54.73 0,18.37 -1.74,36.69 -5.19,54.73 -0.45,2.32 -0.94,4.62 -1.47,6.92 5.46,9.64 9.14,20.19 10.88,31.13 0.2,1.22 0,2.48 -0.58,3.58 -1.52,2.85 -3.56,5.39 -6.02,7.49 -6.22,5.35 -12.83,10.22 -19.78,14.57 -1.02,0.64 -2.19,1.01 -3.4,1.06 -0.75,0.03 -1.39,-0.55 -1.42,-1.3 -0.14,-2.64 -0.09,-5.28 0.15,-7.9 -4.27,6.1 -9.23,11.7 -14.79,16.67 -4.1,3.67 -9.1,6.19 -14.49,7.3 63.72,-14.07 108.77,-70.98 107.83,-136.23 -0.94,-65.24 -43.73,-120.04 -107.83,-132.27z"
   id="path23"
   style="fill:url(#radialGradient24)" />&#10;   <path
   class="fil5"
   d="M158.22 40.08c-5.55,-12.01 -13.49,-22.75 -23.35,-31.57 -5.71,-5.11 -13.1,-7.94 -20.76,-7.94 -2.11,0 -4.21,0.21 -6.27,0.64 -63.72,14.07 -108.77,70.98 -107.83,136.23 0.94,65.24 43.73,120.04 107.83,132.27 2.06,0.43 4.16,0.64 6.27,0.64 7.66,0 15.06,-2.83 20.76,-7.94 9.86,-8.82 17.8,-19.56 23.35,-31.57 5.01,-10.82 8.89,-22.12 11.61,-33.73 -8.38,-10.03 -17.03,-19.82 -25.96,-29.36 -1.71,-1.83 -2.6,-4.28 -2.45,-6.78 0.14,-2.5 1.31,-4.84 3.22,-6.46 2.14,-1.81 4.26,-3.66 6.35,-5.54 2.54,-2.29 5.04,-4.63 7.5,-7.01 3.1,-2.99 8.04,-2.92 11.05,0.15 2.23,2.27 4.44,4.56 6.64,6.87 0.21,-4.51 0.31,-9.01 0.31,-13.52 0,-18.37 -1.74,-36.69 -5.19,-54.73 -2.69,-14.03 -7.08,-27.68 -13.08,-40.65z"
   id="path24"
   style="fill:url(#id5)" />&#10;  </g>&#10; </g>&#10;</svg>
