<?xml version="1.0" encoding="UTF-8"?>
<!DOCTYPE svg PUBLIC "-//W3C//DTD SVG 1.1//EN" "http://www.w3.org/Graphics/SVG/1.1/DTD/svg11.dtd">
<!-- Creator: CorelDRAW 2021 (64 Bit) -->
<svg xmlns="http://www.w3.org/2000/svg" xml:space="preserve" width="2.7092mm" height="2.7092mm" version="1.1" style="shape-rendering:geometricPrecision; text-rendering:geometricPrecision; image-rendering:optimizeQuality; fill-rule:evenodd; clip-rule:evenodd"
viewBox="0 0 270.92 270.92"
 xmlns:xlink="http://www.w3.org/1999/xlink"
 xmlns:xodm="http://www.corel.com/coreldraw/odm/2003">
 <defs>
  <style type="text/css">
   <![CDATA[
    .str0 {stroke:#4682C8;stroke-width:17.64;stroke-linejoin:round;stroke-miterlimit:22.9256}
    .str1 {stroke:gray;stroke-width:17.64;stroke-linejoin:round;stroke-miterlimit:22.9256}
    .fil0 {fill:none}
    .fil1 {fill:#4682C8}
   ]]>
  </style>
 </defs>
 <g id="Camada_x0020_1">
  <metadata id="CorelCorpID_0Corel-Layer"/>
  <rect class="fil0" x="-0" y="-0" width="270.93" height="270.93"/>
  <polygon class="fil1" points="135.46,268.78 186.27,241.29 135.46,213.8 "/>
  <g id="_2779543634528">
   <path class="fil0 str0" d="M135.46 241.29c-58.44,0 -105.83,-47.38 -105.83,-105.83 0,-58.45 47.39,-105.83 105.83,-105.83 23.8,0 46.9,8.02 65.58,22.76"/>
   <path class="fil0 str1" d="M210.28 60.63c3.28,3.27 6.33,6.74 9.14,10.41m18.26 91.8c-1.2,4.47 -2.68,8.85 -4.44,13.12m8.04 -40.51c0.01,4.63 -0.3,9.24 -0.9,13.82m-2.71 -41.21c1.2,4.47 2.11,9 2.71,13.59m-13.28 -39.11c2.32,4 4.37,8.15 6.14,12.42"/>
  </g>
 </g>
</svg>
