<?xml version="1.0" encoding="UTF-8"?>
<!DOCTYPE svg PUBLIC "-//W3C//DTD SVG 1.1//EN" "http://www.w3.org/Graphics/SVG/1.1/DTD/svg11.dtd">
<!-- Creator: CorelDRAW 2021 (64 Bit) -->
<svg xmlns="http://www.w3.org/2000/svg" xml:space="preserve" width="2.7092mm" height="2.7092mm" version="1.1" style="shape-rendering:geometricPrecision; text-rendering:geometricPrecision; image-rendering:optimizeQuality; fill-rule:evenodd; clip-rule:evenodd"
viewBox="0 0 270.92 270.92"
 xmlns:xlink="http://www.w3.org/1999/xlink"
 xmlns:xodm="http://www.corel.com/coreldraw/odm/2003">
 <defs>
  <style type="text/css">
   <![CDATA[
    .str0 {stroke:gray;stroke-width:17.64;stroke-linejoin:round;stroke-miterlimit:22.9256}
    .fil0 {fill:none}
    .fil2 {fill:#FF9933}
    .fil1 {fill:white}
    .fil3 {fill:#4682C8;fill-rule:nonzero}
   ]]>
  </style>
 </defs>
 <g id="Camada_x0020_1">
  <metadata id="CorelCorpID_0Corel-Layer"/>
  <rect class="fil0" x="-0.01" y="-0" width="270.93" height="270.93"/>
  <g>
   <polygon class="fil1" points="97.36,232.83 97.36,97.35 232.84,97.35 232.84,232.83 "/>
   <path id="_1" class="fil2" d="M97.36 232.83l0 -135.48 135.48 0 0 135.48 -135.48 0zm17.64 -117.84l0 100.2 100.2 0 0 -100.2 -100.2 0z"/>
  </g>
  <g>
   <path class="fil3" d="M262.81 16.91l0 97.36 -17.64 0 0 -97.36 8.82 -8.82 8.82 8.82zm-8.82 -8.82l8.82 0 0 8.82 -8.82 -8.82zm-237.08 0l237.08 0 0 17.64 -237.08 0 -8.82 -8.82 8.82 -8.82zm-8.82 8.82l0 -8.82 8.82 0 -8.82 8.82zm0 237.06l0 -237.06 17.64 0 0 237.06 -8.82 8.82 -8.82 -8.82zm8.82 8.82l-8.82 0 0 -8.82 8.82 8.82zm98.72 0l-98.72 0 0 -17.64 98.72 0 0 17.64z"/>
  </g>
  <path class="fil0 str0" d="M126.99 253.98l16.66 0m101.78 0l16.66 0m-46.27 0l16.66 0m-46.27 0l16.66 0m-46.27 0l16.66 0m80.5 -126.64l0 16.66m0 101.78l0 16.66m0 -46.27l0 16.66m0 -46.27l0 16.66m0 -46.27l0 16.66"/>
 </g>
</svg>
