<?xml version="1.0" encoding="UTF-8"?>
<!DOCTYPE svg PUBLIC "-//W3C//DTD SVG 1.1//EN" "http://www.w3.org/Graphics/SVG/1.1/DTD/svg11.dtd">
<!-- Creator: CorelDRAW 2021 (64 Bit) -->
<svg xmlns="http://www.w3.org/2000/svg" xml:space="preserve" width="2.7092mm" height="2.7092mm" version="1.1" style="shape-rendering:geometricPrecision; text-rendering:geometricPrecision; image-rendering:optimizeQuality; fill-rule:evenodd; clip-rule:evenodd"
viewBox="0 0 270.92 270.92"
 xmlns:xlink="http://www.w3.org/1999/xlink"
 xmlns:xodm="http://www.corel.com/coreldraw/odm/2003">
 <defs>
  <style type="text/css">
   <![CDATA[
    .fil0 {fill:none}
    .fil3 {fill:#009933}
    .fil2 {fill:#666666}
    .fil1 {fill:white}
   ]]>
  </style>
 </defs>
 <g id="Camada_x0020_1">
  <metadata id="CorelCorpID_0Corel-Layer"/>
  <rect class="fil0" x="0.01" y="-0.01" width="270.93" height="270.93"/>
  <g>
   <polygon class="fil1" points="250.04,262.66 110.31,262.66 20.85,156.32 160.58,156.32 "/>
   <path id="_1" class="fil2" d="M250.04 262.66l-139.73 0 -89.46 -106.34 139.73 0 89.46 106.34zm-134.06 -12.35l107.61 0 -68.68 -81.64 -107.61 0 68.68 81.64z"/>
  </g>
  <g>
   <polygon class="fil1" points="250.04,216.13 110.31,216.13 20.85,109.79 160.58,109.79 "/>
   <path id="_1_0" class="fil2" d="M250.04 216.13l-139.73 0 -89.46 -106.34 139.73 0 89.46 106.34zm-134.06 -12.35l107.61 0 -68.68 -81.64 -107.61 0 68.68 81.64z"/>
  </g>
  <g>
   <polygon class="fil1" points="250.04,169.6 110.31,169.6 20.85,63.26 160.58,63.26 "/>
   <path id="_1_1" class="fil2" d="M250.04 169.6l-139.73 0 -89.46 -106.34 139.73 0 89.46 106.34zm-134.06 -12.35l107.61 0 -68.68 -81.64 -107.61 0 68.68 81.64z"/>
  </g>
  <polygon class="fil3" points="108.91,90.9 132.86,66.95 162.78,96.87 225.12,34.54 249.07,58.49 162.78,144.77 "/>
 </g>
</svg>
