<?xml version="1.0" encoding="UTF-8"?>
<!DOCTYPE svg PUBLIC "-//W3C//DTD SVG 1.1//EN" "http://www.w3.org/Graphics/SVG/1.1/DTD/svg11.dtd">
<!-- Creator: CorelDRAW 2021 (64 Bit) -->
<svg xmlns="http://www.w3.org/2000/svg" xml:space="preserve" width="2.7092mm" height="2.7092mm" version="1.1" style="shape-rendering:geometricPrecision; text-rendering:geometricPrecision; image-rendering:optimizeQuality; fill-rule:evenodd; clip-rule:evenodd"
viewBox="0 0 270.92 270.92"
 xmlns:xlink="http://www.w3.org/1999/xlink"
 xmlns:xodm="http://www.corel.com/coreldraw/odm/2003">
 <defs>
  <style type="text/css">
   <![CDATA[
    .str0 {stroke:#4682C8;stroke-width:17.64;stroke-miterlimit:22.9256}
    .fil0 {fill:none}
    .fil1 {fill:white}
   ]]>
  </style>
 </defs>
 <g id="Camada_x0020_1">
  <metadata id="CorelCorpID_0Corel-Layer"/>
  <rect class="fil0" x="-0.01" y="-0" width="270.93" height="270.93"/>
  <path class="fil1 str0" d="M135.41 238.57l100.38 -100c11.77,-11.74 18.17,-27.34 18.2,-43.95 0.02,-16.62 -6.36,-32.18 -18.11,-43.94 -11.76,-11.75 -27.27,-18.16 -43.89,-18.16 -16.62,0 -32.19,6.47 -43.95,18.22l-12.5 12.5 -12.6 -12.61c-11.76,-11.75 -27.38,-18.28 -44.01,-18.28 -16.55,0 -32.13,6.47 -43.83,18.18 -11.75,11.74 -18.19,27.31 -18.17,43.93 0.03,16.62 6.52,32.14 18.27,43.9l100.21 100.21z"/>
 </g>
</svg>
