<?xml version="1.0" encoding="UTF-8"?>
<!DOCTYPE svg PUBLIC "-//W3C//DTD SVG 1.1//EN" "http://www.w3.org/Graphics/SVG/1.1/DTD/svg11.dtd">
<!-- Creator: CorelDRAW 2021 (64 Bit) -->
<svg xmlns="http://www.w3.org/2000/svg" xml:space="preserve" width="2.7092mm" height="2.7092mm" version="1.1" style="shape-rendering:geometricPrecision; text-rendering:geometricPrecision; image-rendering:optimizeQuality; fill-rule:evenodd; clip-rule:evenodd"
viewBox="0 0 270.92 270.92"
 xmlns:xlink="http://www.w3.org/1999/xlink"
 xmlns:xodm="http://www.corel.com/coreldraw/odm/2003">
 <defs>
  <style type="text/css">
   <![CDATA[
    .str0 {stroke:#B3B3B3;stroke-width:17.64;stroke-miterlimit:22.9256}
    .str1 {stroke:#4682C8;stroke-width:17.64;stroke-linejoin:round;stroke-miterlimit:22.9256}
    .fil0 {fill:none}
    .fil1 {fill:gray}
   ]]>
  </style>
 </defs>
 <g id="Camada_x0020_1">
  <metadata id="CorelCorpID_0Corel-Layer"/>
  <rect class="fil0" x="-0.01" y="-0" width="270.93" height="270.93"/>
  <path class="fil0 str0" d="M245.52 83.8l0 -17.02m0 46.63l0 -17.03m0 -71.78l0 -17.04m0 46.64l0 -17.03"/>
  <line class="fil0 str1" x1="245.48" y1="126.12" x2="245.54" y2= "262.47" />
  <path class="fil1" d="M128.02 121.02c-1.94,2.46 -5.21,3.47 -8,1.33 -2.38,-1.81 -3.32,-5.06 -1.27,-8.06 2.52,-3.68 9.32,-2.81 10.18,2.32 0.22,1.34 0.19,3.02 -0.91,4.41zm-37.88 -58.34c-2.74,-1.41 -3.73,-2.28 -5.81,-4.29 -0.62,-0.6 -0.87,-0.91 -1.39,-1.49 -2.83,-3.23 -4.57,-7.54 -5.09,-11.71l-0.16 -3.69c0.31,-4.24 2.41,-9.14 5.99,-11.59 2.37,-1.61 2.64,-1.34 4.75,-2.25 0.75,-0.32 0.36,-0.2 1.2,-0.27 1.43,-0.14 1.67,-0.47 4.05,-0.14 3.59,0.48 3.98,0.53 7.23,2.2 2.06,1.07 3.61,2.56 5.16,4.04 0.6,0.57 0.72,0.89 1.23,1.5 2.62,3.14 4,6.32 4.73,10.11 0.79,4.07 0.48,8.07 -1.62,12.16 -0.44,0.85 -1.31,1.87 -1.88,2.64 -0.8,1.08 -1.23,1.34 -2.15,2.04 -1.11,0.84 -3.36,1.79 -4.76,2.19 -3.56,1.03 -7.97,0.36 -11.48,-1.45zm-51.54 88.07l-1.54 -0.79c-4.87,-2.5 -8.35,-8.44 -8.26,-13.43 0.06,-3.3 1.78,-7.86 4.43,-10.18 1.1,-0.95 1.68,-1.74 2.96,-2.51 0.55,-0.34 0.98,-0.63 1.52,-0.95 1.1,-0.66 3.81,-1.82 5.15,-2.06 3.53,-0.62 2.99,-0.93 7.38,-0.74 2.85,0.12 6.08,1.02 9.03,2.54 1.16,0.6 1.83,1.19 2.93,1.91 1.02,0.67 1.44,1.38 2.16,2.09 2.28,2.32 3.99,6.74 3.73,9.98 -0.19,2.44 -0.62,4.05 -1.81,6.31 -2.5,4.81 -7.21,7.7 -12.18,9.03 -1.08,0.29 -2.33,0.64 -3.51,0.74 -0.59,0.05 -1.31,0.06 -1.81,0.07 -2.08,0.03 -3.87,-0.08 -5.87,-0.55 -0.79,-0.18 -1.43,-0.5 -2.21,-0.71 -0.64,-0.18 -0.13,0.27 -2.1,-0.75zm67.58 -71.58c0.52,1.35 7.25,10.43 8.36,11.87l6.24 8.82c2.96,3.39 1.29,3.27 4.57,3.23l30.93 -1.43c1.36,-0.09 2.57,-0.1 3.83,-0.15 7.18,-0.28 12.43,-1.01 19.74,0.67 1.34,0.31 3.12,0.99 4.28,1.21 1.36,0.26 3.09,1.18 4.53,1.7 5.87,2.13 12.46,6.55 17.32,9.82l7.3 5.52c1.08,0.92 2.34,1.81 3.43,2.76 0.55,0.48 1.05,0.95 1.7,1.4 0.4,0.28 0.6,0.42 0.94,0.69 0.4,0.3 0.7,0.42 0.75,0.84 -0.56,0.51 -4.24,0.21 -4.91,0.18 -0.98,-0.04 -1.59,0.03 -2.44,0.06 -0.93,0.05 -1.61,0 -2.61,-0.06l-5.05 -0.01c-0.84,0.01 -1.58,0.01 -2.46,0.02 -0.84,0.01 -1.7,0.06 -2.55,0.04 -0.87,-0.01 -1.75,-0.17 -2.56,-0.17 -2.46,-0.01 -4.91,0.24 -7.48,0.09 -3.74,-0.21 -11.07,-0.05 -15.03,-0.01 -1.69,0.02 -3.47,-0.09 -5.11,-0.1l-18.8 -0.06c-0.43,0 -0.89,-0.06 -1.32,-0.06 -0.38,0.01 -0.68,0.13 -1.14,0.11l-4.13 -0.13c-0.03,0 -0.08,0.01 -0.1,0.01 -0.04,0 -0.17,0.02 -0.21,0.02l-1.95 0c-0.5,-0.05 -0.8,-0.01 -1.25,0.02 -0.51,0.04 -0.87,-0.13 -1.19,0.2 0.22,0.59 3.6,5.09 4.31,6 0.61,0.77 0.89,1.42 1.37,2.12l4.52 6.09c0.53,0.68 0.91,1.53 1.44,2.11 0.86,0.94 0.86,1.11 1.5,2l2.9 4.11c0.53,0.79 1.04,1.3 1.62,2.08l6.51 9.18c0.3,0.44 0.33,0.62 0.64,1.07l3 4c1.6,2.01 2.9,4.16 4.44,6.2 1.09,1.44 1.95,2.67 2.92,4.11 0.48,0.71 1.1,1.31 1.54,2l2.91 4.1c0.32,0.43 0.41,0.63 0.72,1.06l0.89 1.12c0.02,0.03 0.04,0.06 0.06,0.09l0.58 0.79c0.39,0.51 0.39,0.54 0.71,1.04 0.47,0.75 0.97,1.43 1.5,2.12l2.14 3.06c0.36,0.53 0.7,0.55 0.46,1.09 -0.78,-0.08 -1.8,-0.69 -2.69,-0.81l-8.41 -2.25c-0.97,-0.31 -1.98,-0.75 -2.96,-1.05l-2.23 -0.65c-0.03,-0.01 -0.07,0 -0.11,-0.01 -0.68,-0.12 -1.26,-0.56 -1.95,-0.7 -1.02,-0.22 -3.27,-1.27 -4.39,-1.68 -2.94,-1.09 -9.1,-3.83 -11.51,-5.67 -0.76,-0.6 -1.86,-1.11 -2.74,-1.71 -1.74,-1.19 -3.29,-2.26 -4.9,-3.61 -0.65,-0.54 -1.71,-1.4 -2.21,-1.89l-3.58 -3.88c-2.59,-3.14 -4.98,-7.16 -7.2,-10.59 -0.28,-0.42 -0.35,-0.64 -0.68,-1.07l-3.36 -5.36c-1.15,-2.01 -4.16,-6.29 -5.56,-8.54l-5.44 -8.45c-0.52,-0.76 -0.84,-1.4 -1.35,-2.14l-4 -6.14c-7.11,0.13 -22.82,0.41 -27.92,0.37 -0.69,-0.09 -0.63,-0.24 -1.21,0.18 -0.07,0.48 1.04,4 1.25,4.83 0.52,2.04 0.63,6.21 0.27,8.48 -0.63,3.94 -2.23,7.93 -4.56,11.21 -0.48,0.7 -0.68,1.11 -1.19,1.7l-1.31 1.47c-2.59,3.12 -4.89,4.68 -8.21,6.68 -0.91,0.54 -3.51,1.95 -4.43,2.26l-3.06 1.17c-0.51,0.16 -1.1,0.36 -1.57,0.46 -0.63,0.13 -0.89,0.18 -1.6,0.39 -0.62,0.18 -1.04,0.22 -1.61,0.35 -2.5,0.6 -7.71,0.84 -10.2,0.71 -1.28,-0.06 -2.17,-0.17 -3.54,-0.32 -0.73,-0.08 -1.06,-0.06 -1.77,-0.23 -0.71,-0.17 -1.18,-0.23 -1.83,-0.31 -4.83,-0.61 -11.37,-4.42 -15.19,-7.26 -0.84,-0.63 -0.79,-0.74 -1.35,-1.25 -0.52,-0.49 -0.97,-0.78 -1.44,-1.3 -2.21,-2.42 -1.65,-1.77 -3.33,-4.09 -2.18,-3.03 -3.6,-7.22 -4.13,-10.81 -0.16,-1.16 -0.12,-2.17 -0.18,-3.38 -0.11,-2.16 0.55,-5.2 1.03,-7.3l1.45 -3.85c1.62,-3.11 2.64,-4.52 4.66,-6.78 0.27,-0.3 0.39,-0.59 0.62,-0.88 0.29,-0.34 0.28,-0.16 0.65,-0.46l1.33 -1.27c0.52,-0.44 0.89,-0.71 1.36,-1.13 0.66,-0.59 0.78,-0.53 1.39,-0.96 1.95,-1.36 3.62,-2.51 5.86,-3.53 0.97,-0.44 2,-0.93 3.02,-1.31 3.25,-1.23 7.73,-2.23 11.22,-2.51l9.3 -0.47c0.2,-0.02 0.18,-0.01 0.41,-0.03l2.29 0.01c0.42,0.01 1.21,-0.09 1.67,-0.13 2.43,-0.2 5.68,-0.13 8.45,-0.42 0.31,-0.03 0.55,-0.03 0.85,-0.04 0.44,-0.03 0.5,-0.09 0.81,-0.11l1.73 0c1.12,-0.09 2.29,-0.11 3.37,-0.21 1.12,-0.09 2.32,0.04 3.41,-0.12l19.74 -0.72 -14.06 -21.94c-0.44,-0.84 -1,-1.39 -1.48,-2.13l-1.27 -2.15c-0.6,-1.18 -1.52,-2.07 -2.08,-3.21 -0.55,-1.15 -2.63,-4.25 -3.39,-5.35l-4.11 -6.32c-1.32,-1.98 -2.74,-4.38 -3.78,-6.53 -1.92,-3.98 -3.58,-9.54 -3.76,-14.14 -0.11,-2.62 -0.25,-5.2 0.29,-7.82 0.6,-2.89 1.22,-5.74 2.65,-8.48 1.26,-2.43 2.65,-4.67 4.36,-6.61 0.29,-0.32 0.64,-0.54 0.98,-0.9 0.6,-0.64 1.3,-1.21 2.01,-1.75 3.31,-2.51 7.24,-4.16 11.3,-4.92 2.55,-0.48 5.13,-0.37 7.69,-0.16 0.99,0.08 1.7,0.25 2.7,0.39 0.9,0.12 1.97,0.57 2.84,0.78 3.31,0.79 8.53,3.44 11.28,5.68 0.78,0.64 1.59,1.19 2.36,1.83 1.75,1.43 3.2,3.35 4.72,4.92 0.91,0.94 1.54,2.01 2.2,3.04 0.46,0.72 1.07,1.41 1.49,2.13 0.83,1.43 1.55,2.91 2.31,4.42 1.12,2.22 2.48,7.01 2.83,9.4 0.3,2.07 0.65,3.87 0.71,6.1 0.01,0.42 -0.07,0.86 -0.06,1.31 0.15,6.21 -2.94,14.54 -7.27,19.05 -0.98,1.03 -1.87,2.12 -2.96,2.87 -0.41,0.28 -0.67,0.33 -1.06,0.64 -2.17,1.75 -4.15,2.66 -6.64,3.5 -0.59,0.2 -1.78,0.36 -2.35,0.82z"/>
 </g>
</svg>
