<?xml version="1.0" encoding="UTF-8"?>
<!DOCTYPE svg PUBLIC "-//W3C//DTD SVG 1.1//EN" "http://www.w3.org/Graphics/SVG/1.1/DTD/svg11.dtd">
<!-- Creator: CorelDRAW 2021 (64 Bit) -->
<svg xmlns="http://www.w3.org/2000/svg" xml:space="preserve" width="2.7092mm" height="2.7092mm" version="1.1" style="shape-rendering:geometricPrecision; text-rendering:geometricPrecision; image-rendering:optimizeQuality; fill-rule:evenodd; clip-rule:evenodd"
viewBox="0 0 270.92 270.92"
 xmlns:xlink="http://www.w3.org/1999/xlink"
 xmlns:xodm="http://www.corel.com/coreldraw/odm/2003">
 <defs>
  <style type="text/css">
   <![CDATA[
    .str0 {stroke:#4682C8;stroke-width:8.82;stroke-linecap:round;stroke-miterlimit:22.9256}
    .fil0 {fill:none}
    .fil1 {fill:white}
   ]]>
  </style>
 </defs>
 <g id="Camada_x0020_1">
  <metadata id="CorelCorpID_0Corel-Layer"/>
  <rect class="fil0" x="-0.01" y="-0.02" width="270.93" height="270.93"/>
  <path class="fil1 str0" d="M231.55 156.55l-21 0c-1.7,6.02 -4.08,11.74 -7.08,17.09l14.85 14.85c3.76,3.76 3.79,9.98 0,13.78l-16.05 16.05c-3.8,3.79 -9.98,3.79 -13.78,0l-14.85 -14.85c-5.33,3 -11.07,5.38 -17.09,7.08l0 21c0,5.32 -4.37,9.74 -9.74,9.74l-22.7 0c-5.37,0 -9.74,-4.38 -9.74,-9.74l0 -21c-6.02,-1.68 -11.74,-4.08 -17.09,-7.08l-14.85 14.85c-3.76,3.76 -9.98,3.79 -13.78,0l-16.05 -16.05c-3.79,-3.8 -3.79,-9.98 0,-13.78l14.85 -14.85c-3,-5.35 -5.38,-11.07 -7.08,-17.09l-21 0c-5.32,0 -9.74,-4.37 -9.74,-9.74l0 -22.7c0,-5.37 4.38,-9.74 9.74,-9.74l21 0c1.7,-6.02 4.08,-11.74 7.08,-17.09l-14.85 -14.85c-3.76,-3.76 -3.79,-9.98 0,-13.78l16.05 -16.05c3.8,-3.79 9.98,-3.79 13.78,0l14.85 14.85c5.33,-3 11.07,-5.38 17.09,-7.08l0 -21c0,-5.32 4.37,-9.74 9.74,-9.74l22.7 0c5.37,0 9.74,4.38 9.74,9.74l0 21c6.02,1.68 11.74,4.08 17.09,7.08l14.85 -14.85c3.76,-3.76 9.98,-3.79 13.78,0l16.05 16.05c3.79,3.8 3.79,9.98 0,13.78l-14.85 14.85c3,5.35 5.38,11.07 7.08,17.09l21 0c5.32,0 9.74,4.37 9.74,9.74l0 22.7c0,5.37 -4.38,9.74 -9.74,9.74zm-96.09 -63.41c23.39,0 42.32,18.93 42.32,42.32 0,23.39 -18.93,42.32 -42.32,42.32 -23.39,0 -42.32,-18.93 -42.32,-42.32 0,-23.39 18.93,-42.32 42.32,-42.32z"/>
 </g>
</svg>
